# File produced by Open Asset Import Library (http://www.assimp.sf.net)
# (assimp v3.1.187496374)

mtllib origamix_rabbit.obj.mtl

# 148 vertex positions
v  28.5576 1.90316 49.5753
v  28.3538 4.99579 53.0026
v  28.402 4.40633 52.9015
v  36.2132 -3.93404e-06 45.0002
v  51.213 0.599997 31.2002
v  21.2131 9.3 15.0001
v  36.8132 0.599996 46.2002
v  -0.412839 3.73544 49.755
v  -0.0826693 0.599995 55.6502
v  21.2132 0.599972 59.4978
v  34.0475 2.41671 69.0377
v  49.4015 10.9445 85.8002
v  28.3696 4.61485 73.1252
v  21.2132 -2.79371e-05 59.7978
v  41.5254 3.81857 63.7502
v  22.7715 7.79613 18.1169
v  21.2131 8.7 15.0001
v  21.2131 -9.3 15.0001
v  36.8132 -0.600004 46.2002
v  22.7715 -7.79613 18.1169
v  21.2131 -8.7 15.0001
v  20.3879 9.63861 43.2598
v  28.3696 6.11485 73.1252
v  -0.0826693 -4.89133e-06 55.9503
v  29.7631 7.64999 12.0001
v  36.2132 13.8 1.20643e-06
v  4.41317 14.85 1.29823e-06
v  36.2132 15 1.31134e-06
v  21.2131 9.9 15.0001
v  36.2132 0 0
v  36.2132 0.6 5.24536e-08
v  36.2132 -0.6 -5.24537e-08
v  36.2132 -13.8 -1.20643e-06
v  36.2132 -15 -1.31134e-06
v  21.2131 -9.9 15.0001
v  37.4427 -4.03408e-06 46.1445
v  51.213 -2.78006e-06 31.8002
v  36.9053 -4.06031e-06 46.4445
v  51.213 -2.6227e-06 30.0002
v  51.213 0.599997 30.0002
v  51.213 0.449997 30.6002
v  51.213 -0.600002 30.0002
v  51.213 -0.600003 31.2002
v  51.213 -0.450002 30.6002
v  51.213 15 15.0001
v  51.213 1.2 31.2002
v  51.213 -1.2 31.2002
v  51.213 -15 15.0001
v  51.813 14.4 15.0001
v  36.2132 13.2 1.15398e-06
v  28.3696 5.51485 73.1252
v  41.5254 5.61857 63.7502
v  59.6132 0.599998 23.5501
v  42.4684 2.35441 12.375
v  59.6132 0.599997 28.5
v  14.9879 9.33861 42.6598
v  14.9879 8.73861 42.6598
v  23.0132 4.95 36.63
v  1.93726 3.99046 48.6723
v  20.3879 8.73861 43.2598
v  22.7715 7.19613 18.1169
v  22.638 6.8443 29.1675
v  51.2474 1.24957 29.706
v  34.6929 3.66089 3.20045e-07
v  40.3295 5.54413 4.84683e-07
v  40.3295 6.14413 5.37137e-07
v  27.3116 3.70315 60.3943
v  49.4015 11.8445 85.8002
v  15.8208 2.45699 39.7573
v  8.76521 -3.7439e-06 42.8252
v  5.24127 -4.46186e-06 51.0377
v  23.0132 5.55 36.63
v  13.7132 5.55 29.13
v  41.5254 5.01857 63.7502
v  22.7715 6.59613 18.1169
v  22.7715 -7.19613 18.1169
v  22.7715 -6.59613 18.1169
v  57.3844 0.599997 31.6288
v  52.8417 0.599997 31.6288
v  52.8417 -2.76508e-06 31.6288
v  57.3844 -2.76508e-06 31.6288
v  52.8417 -0.600003 31.6288
v  57.3844 -0.600003 31.6288
v  -0.0826693 -4.81265e-06 55.0503
v  -0.116273 0.319114 55.0503
v  0.415475 -4.81265e-06 55.0503
v  -0.116273 -0.319123 55.0503
v  13.7132 4.95 29.13
v  20.6131 -1.31135e-06 15.0001
v  18.8131 -2.6227e-06 30.0002
v  23.9506 3.45 27.6526
v  -0.412839 3.13544 49.755
v  59.9132 -2.05881e-06 23.5501
v  48.8233 -1.45087e-06 16.5961
v  22.5898 0.483717 62.1191
v  23.4819 3.9 30.9413
v  23.4819 3.3 30.9413
v  28.8632 10.5 9.17939e-07
v  41.0132 5.10674e-29 -5.84143e-22
v  59.9132 -2.49155e-06 28.5
v  34.6929 -3.66089 -3.20045e-07
v  40.3295 -5.54413 -4.84683e-07
v  40.3295 -6.14413 -5.37137e-07
v  28.8632 -10.5 -9.17939e-07
v  4.41317 -14.85 -1.29823e-06
v  36.2132 -13.2 -1.15398e-06
v  27.3116 2.80315 60.3943
v  34.9158 5.61555 69.1401
v  28.402 -4.40634 52.9016
v  28.3538 -4.9958 53.0026
v  28.5576 -1.90317 49.5753
v  21.2132 -0.599982 59.4978
v  -0.0826693 -0.600005 55.6503
v  -0.412839 -3.73545 49.7551
v  28.3696 -4.61486 73.1252
v  49.4015 -10.9445 85.8003
v  34.0475 -2.41672 69.0377
v  41.5254 -3.81858 63.7502
v  20.3879 -9.63862 43.2598
v  28.3696 -6.11486 73.1252
v  29.7631 -7.65 12.0001
v  51.813 -14.4 15.0001
v  28.3696 -5.51486 73.1252
v  41.5254 -5.61858 63.7502
v  59.6132 -0.600002 28.5001
v  42.4684 -2.35442 12.375
v  59.6132 -0.600002 23.5501
v  14.9879 -9.33862 42.6599
v  1.93726 -3.99047 48.6723
v  23.0132 -4.95001 36.63
v  14.9879 -8.73862 42.6599
v  20.3879 -8.73862 43.2598
v  22.638 -6.84431 29.1675
v  51.2474 -1.24958 29.706
v  27.3116 -3.70316 60.3943
v  49.4015 -11.8445 85.8003
v  15.8208 -2.457 39.7573
v  13.7132 -5.55001 29.13
v  23.0132 -5.55001 36.63
v  41.5254 -5.01858 63.7502
v  13.7132 -4.95001 29.13
v  23.9506 -3.45001 27.6526
v  -0.412839 -3.13545 49.7551
v  22.5898 -0.483728 62.1191
v  23.4819 -3.90001 30.9413
v  23.4819 -3.30001 30.9413
v  27.3116 -2.80316 60.3943
v  34.9158 -5.61556 69.1401

# 0 UV coordinates

# 250 vertex normals
vn 0.597776 0.0506085 -0.0101225
vn 0.129897 -0.43103 0.396661
vn 0.110778 0.580016 0.106346
vn -0.0511206 0.526617 0.282951
vn -0.00670271 -0.532237 0.27691
vn 0.281528 0.446431 0.285379
vn 0.185639 -0.558985 0.114339
vn 0.101596 -0.591192 -0.0130582
vn -0.536656 -2.33692e-06 0.268329
vn -0.536656 5.46835e-08 0.26833
vn -0.536656 -1.17291e-08 0.26833
vn -0.536656 1.0245e-06 0.268329
vn -0.536656 4.05306e-08 0.26833
vn 0.313009 0.511742 -0.0120587
vn 0.12462 -0.586586 -0.0196744
vn -0.055762 0.521414 0.291579
vn -0.332143 0.498924 -0.0274852
vn -0.0559441 0.52023 0.293652
vn -0.597829 0.0228065 0.0456123
vn 0.0174955 0.529865 0.280958
vn -0.424264 3.70904e-08 -0.424264
vn -0.424264 1.85452e-08 -0.424264
vn -0.424264 3.70903e-08 -0.424264
vn -0.424264 3.70903e-08 -0.424264
vn -0.424264 1.85452e-08 -0.424264
vn -0.424263 -3.19978e-06 -0.424265
vn -0.424264 1.85452e-08 -0.424264
vn -0.206173 -0.448726 -0.34079
vn 0.355835 0.341603 0.341597
vn 0.355838 0.341599 0.341599
vn -0.54071 0.0225422 0.259084
vn 0.6 4.57764e-06 3.99047e-13
vn 0.6 3.66211e-06 -9.15526e-07
vn 0.6 0 0
vn 0.6 1.57205e-22 -3.59643e-15
vn 0.346413 0.346413 -0.346405
vn 0.41587 3.781e-08 -0.432496
vn 0.41587 3.781e-08 -0.432496
vn 0.6 2.06045e-11 -0.000471377
vn 0.597978 0.0491877 -0.00173857
vn 0.228648 0.448324 -0.326688
vn 0.0610786 0.596883 5.1965e-08
vn -0.28509 -2.30771e-08 0.527943
vn -0.0991743 0.583378 0.0991723
vn -0.0770048 0.452969 0.385862
vn -0.0606645 0.525434 0.283265
vn -0.291018 0.172321 -0.495595
vn 0.0662589 2.60664e-08 -0.59633
vn 0.31271 0.512006 -0.00787452
vn -0.301029 -0.51902 -2.18342e-08
vn -0.448507 -0.398138 -0.0180941
vn 0.359203 0.359203 0.319291
vn 0.59964 -0.0201589 0.00503649
vn 0.59964 -0.0201542 0.00503854
vn 0.182154 -0.545191 -0.172009
vn 0.4912 -0.266018 -0.21899
vn 0.563168 1.8095e-08 -0.206983
vn -0.169345 0.55842 0.139605
vn 0.430729 -0.417035 0.0235486
vn -0.131614 0.580975 -0.0717383
vn 0.268652 0.237181 0.481218
vn -0.23284 0.543878 -0.0999098
vn -0.085202 0.584447 0.105651
vn 0.0319641 0.525567 -0.287677
vn -0.557856 9.65584e-09 -0.2209
vn -0.494926 -0.337513 -0.0336549
vn -0.0897658 0.591725 0.0424681
vn 0.442695 1.77029e-08 -0.404996
vn -0.233934 -0.522043 0.180958
vn -0.00835712 0.515305 -0.307231
vn -0.481857 1.56273e-08 -0.357511
vn -0.481857 1.56273e-08 -0.357511
vn 3.93002e-06 4.55144e-06 0.6
vn 4.53464e-06 -2.62268e-08 0.6
vn 3.93002e-06 -2.62268e-08 0.6
vn -0.424258 -1.8459e-08 0.42427
vn -0.424258 -1.85454e-08 0.42427
vn 0.6 1.83108e-05 4.57772e-06
vn 5.51363e-06 6.06825e-07 -0.6
vn 5.51363e-06 -9.16115e-06 -0.6
vn -0.596701 -0.062834 -1.14208e-08
vn 0.0366619 0.598309 0.026116
vn -0.114157 0.577872 0.11416
vn 3.56625e-07 0.597525 0.0544464
vn -0.463391 1.66602e-08 -0.381142
vn -0.0861481 0.593515 0.0178555
vn -0.361697 0.2961 -0.376165
vn -0.556655 0.213713 -0.0667985
vn -0.107644 -0.564376 -0.172896
vn -0.250332 0.507863 0.198516
vn -0.262536 -0.437469 -0.315747
vn -0.218942 -0.498198 -0.252711
vn 0.256153 -0.513057 -0.176517
vn 0.326887 0.163444 -0.475848
vn 0.317609 -0.0507957 -0.506502
vn -0.514394 0.13813 0.276259
vn -0.599061 -1.46658e-09 0.0335513
vn -0.598702 -0.0384626 0.00871622
vn 0.0394257 -0.590353 0.0996469
vn -0.0467961 -0.551522 0.231588
vn -0.184001 0.496334 -0.282482
vn -0.0946067 0.581212 -0.115073
vn -0.26315 0.498244 -0.206167
vn -0.20114 -0.482916 -0.293828
vn -0.122396 -0.56506 -0.160394
vn -0.593997 3.70059e-09 -0.0846596
vn -0.0764939 -0.590977 0.0699622
vn -0.0817499 -0.585697 0.10137
vn -0.376652 -2.04153e-08 0.467048
vn -0.295254 0.477864 -0.210881
vn -0.342428 0.491984 -0.0263652
vn 0.486558 -0.270802 -0.223445
vn 0.16749 0.440896 -0.370888
vn 0.199046 -0.541847 -0.163656
vn 0.292698 0.505326 -0.137744
vn 0.269886 0.523543 -0.114302
vn -0.095716 0.264895 0.529782
vn -0.0957164 0.264892 0.529784
vn -0.597322 2.47525e-09 -0.0566271
vn -0.531206 -1.21939e-08 0.278963
vn -0.531206 2.09835e-06 0.278962
vn -0.531206 -1.21938e-08 0.278963
vn -0.25106 2.38204e-08 -0.544948
vn -0.25106 -1.36219e-06 -0.544949
vn -0.371172 2.06062e-08 -0.471414
vn 0.452597 0.226299 0.322405
vn 0.466642 -1.64859e-08 0.377154
vn 0.466642 6.42117e-06 0.377154
vn 0.536656 0.268328 2.33608e-08
vn 0.536656 0.268328 2.3458e-08
vn -5.17999e-15 5.24537e-08 -0.6
vn 5.77335e-16 5.24537e-08 -0.6
vn 1.65318e-16 5.24537e-08 -0.6
vn -5.44933e-16 5.24537e-08 -0.6
vn 5.75461e-15 5.24537e-08 -0.6
vn -7.29573e-23 5.24537e-08 -0.6
vn 3.36473e-15 5.24537e-08 -0.6
vn 3.29528e-16 5.24537e-08 -0.6
vn -1.64148e-15 5.24537e-08 -0.6
vn -1.72383e-15 5.24537e-08 -0.6
vn -8.53878e-15 5.24537e-08 -0.6
vn -0.309702 -2.24629e-08 0.513892
vn 0.565036 8.82211e-09 -0.201826
vn -0.137868 -2.55251e-08 0.583946
vn -0.0584851 0.581422 -0.136118
vn -0.0722908 0.575796 -0.152425
vn 0.452782 9.48947e-07 -0.393685
vn 0.452783 1.72085e-08 -0.393685
vn 0.597776 -0.0506085 -0.0101225
vn 0.129897 0.43103 0.396661
vn 0.110778 -0.580016 0.106346
vn -0.0511207 -0.526617 0.282951
vn -0.00670271 0.532237 0.27691
vn 0.281528 -0.446433 0.285377
vn 0.185639 0.558985 0.114339
vn 0.101596 0.591192 -0.0130581
vn 0.313009 -0.511742 -0.0120588
vn 0.124618 0.586586 -0.0196735
vn -0.055762 -0.521414 0.291579
vn -0.332143 -0.498924 -0.0274853
vn -0.0559441 -0.52023 0.293652
vn -0.597829 -0.022806 0.045612
vn 0.0174955 -0.529865 0.280958
vn -0.206173 0.448726 -0.340789
vn 0.355837 -0.341599 0.341599
vn 0.355839 -0.341595 0.341601
vn -0.54071 -0.0225444 0.259084
vn 0.346413 -0.346413 -0.346405
vn 0.41587 3.781e-08 -0.432496
vn 0.41587 3.781e-08 -0.432496
vn 0.6 2.06045e-11 -0.000471376
vn 0.597978 -0.0491877 -0.00173858
vn 0.228648 -0.448324 -0.326688
vn 0.0610786 -0.596883 -5.1965e-08
vn -0.28509 -2.30771e-08 0.527943
vn -0.0991743 -0.583378 0.0991722
vn -0.0770048 -0.452969 0.385862
vn -0.0606646 -0.525434 0.283264
vn -0.291018 -0.172321 -0.495595
vn 0.31271 -0.512006 -0.00787462
vn -0.301029 0.51902 6.52496e-08
vn -0.448507 0.398138 -0.018094
vn 0.359203 -0.359203 0.319291
vn 0.59964 0.0201589 0.0050365
vn 0.59964 0.0201542 0.00503855
vn 0.182154 0.545191 -0.172009
vn 0.4912 0.266018 -0.21899
vn 0.563168 1.8095e-08 -0.206983
vn -0.169345 -0.55842 0.139605
vn 0.430729 0.417035 0.0235487
vn -0.131614 -0.580975 -0.0717384
vn 0.268653 -0.237176 0.48122
vn -0.232839 -0.543879 -0.0999098
vn -0.085202 -0.584447 0.10565
vn 0.0319641 -0.525567 -0.287677
vn -0.494926 0.337513 -0.0336548
vn -0.0897658 -0.591725 0.042468
vn 0.442695 1.77029e-08 -0.404996
vn -0.233934 0.522043 0.180958
vn -0.0083572 -0.515305 -0.307231
vn -0.596701 0.0628341 -4.34537e-10
vn 0.0366619 -0.598309 0.0261159
vn -0.114157 -0.577872 0.11416
vn 3.56625e-07 -0.597525 0.0544463
vn -0.463391 1.66602e-08 -0.381142
vn -0.0861481 -0.593515 0.0178554
vn -0.361697 -0.2961 -0.376165
vn -0.556655 -0.213714 -0.0667985
vn -0.107644 0.564376 -0.172895
vn -0.250332 -0.507863 0.198516
vn -0.262537 0.437467 -0.315749
vn -0.218942 0.498198 -0.252711
vn 0.256153 0.513057 -0.176517
vn 0.326887 -0.16344 -0.475849
vn 0.317609 0.0507961 -0.506502
vn -0.514392 -0.138138 0.276259
vn -0.599061 -1.46658e-09 0.0335513
vn -0.598702 0.0384624 0.00871636
vn 0.0394371 0.590355 0.0996287
vn -0.046796 0.551522 0.231588
vn -0.184001 -0.496334 -0.282482
vn -0.0946067 -0.581212 -0.115073
vn -0.26315 -0.498244 -0.206167
vn -0.20114 0.482916 -0.293828
vn -0.122396 0.56506 -0.160394
vn -0.593997 3.70058e-09 -0.0846595
vn -0.0764939 0.590977 0.0699624
vn -0.0817499 0.585697 0.10137
vn -0.376652 -2.04153e-08 0.467048
vn -0.295254 -0.477865 -0.21088
vn -0.342428 -0.491984 -0.0263653
vn 0.486558 0.270802 -0.223445
vn 0.16749 -0.440896 -0.370888
vn 0.199046 0.541847 -0.163656
vn 0.292698 -0.505326 -0.137744
vn 0.269886 -0.523542 -0.114302
vn -0.0957168 -0.264892 0.529784
vn -0.0957156 -0.264902 0.529779
vn -0.597322 2.47525e-09 -0.0566271
vn -0.531206 -2.12274e-06 0.278962
vn -0.25106 1.39361e-06 -0.544949
vn -0.371172 2.06062e-08 -0.471414
vn 0.452599 -0.226292 0.322407
vn 0.53666 -0.268322 -2.33603e-08
vn 0.53666 -0.268322 -2.34574e-08
vn -0.137868 -2.55251e-08 0.583946
vn -0.0584852 -0.581422 -0.136118
vn -0.0722909 -0.575796 -0.152425
vn 0.452782 -1.67795e-06 -0.393685
vn 0.452782 1.72085e-08 -0.393685

# Mesh '<STL_BINARY>' with 292 faces
g <STL_BINARY>
usemtl DefaultMaterial
f  1//1 2//1 3//1
f  1//2 4//2 2//2
f  5//3 6//3 7//3
f  8//4 9//4 10//4
f  11//5 12//5 13//5
f  14//6 4//6 1//6
f  12//7 11//7 15//7
f  15//8 11//8 1//8
f  7//9 6//9 4//9
f  16//10 4//9 6//9
f  6//9 17//11 16//10
f  4//9 18//12 19//12
f  18//12 4//9 20//13
f  20//13 21//11 18//12
f  4//14 22//14 2//14
f  1//15 11//15 14//15
f  8//16 10//16 2//16
f  23//17 2//17 10//17
f  8//18 2//18 22//18
f  9//19 8//19 24//19
f  25//20 26//20 27//20
f  28//21 26//21 6//21
f  6//21 29//22 28//21
f  30//22 17//22 6//21
f  6//21 31//23 30//22
f  18//24 21//25 30//22
f  30//22 32//26 18//24
f  18//24 33//24 34//24
f  34//24 35//27 18//24
f  6//28 26//28 25//28
f  36//29 37//29 5//29
f  5//29 7//30 36//29
f  7//31 4//31 38//31
f  37//32 39//32 40//32
f  41//33 5//34 37//32
f  42//35 39//32 37//32
f  37//32 43//34 44//34
f  44//34 42//35 37//32
f  45//34 46//34 5//34
f  43//34 47//34 48//34
f  45//36 49//36 28//36
f  28//37 49//37 26//37
f  49//37 50//38 26//37
f  51//39 2//39 23//39
f  2//40 51//40 3//40
f  52//41 1//41 3//41
f  53//42 54//42 55//42
f  46//43 29//43 6//43
f  6//43 5//43 46//43
f  29//44 45//44 28//44
f  45//45 29//45 46//45
f  56//46 8//46 22//46
f  57//47 58//47 59//47
f  22//48 57//48 56//48
f  60//48 57//48 22//48
f  16//49 22//49 4//49
f  30//50 16//50 17//50
f  60//51 61//51 62//51
f  5//52 49//52 45//52
f  63//53 49//53 5//53
f  5//53 41//54 63//53
f  54//55 64//55 65//55
f  65//56 63//56 41//56
f  63//57 65//57 66//57
f  54//58 41//58 40//58
f  3//59 51//59 67//59
f  68//60 67//60 51//60
f  36//61 7//61 38//61
f  69//62 70//62 71//62
f  72//63 62//63 73//63
f  60//64 58//64 57//64
f  60//65 72//65 58//65
f  72//66 60//66 62//66
f  52//67 3//67 67//67
f  1//68 52//68 74//68
f  74//68 15//68 1//68
f  31//69 25//69 27//69
f  31//70 6//70 25//70
f  61//71 16//71 30//71
f  30//71 75//71 61//71
f  30//71 20//72 76//72
f  76//72 77//72 30//71
f  78//73 79//73 80//73
f  80//73 81//74 78//73
f  80//73 82//75 83//75
f  83//75 81//74 80//73
f  79//76 40//76 39//76
f  39//76 80//76 79//76
f  39//76 42//77 82//77
f  82//77 80//76 39//76
f  37//78 40//78 41//78
f  84//79 85//79 86//79
f  86//79 87//80 84//79
f  84//81 24//81 85//81
f  54//82 78//82 55//82
f  79//83 54//83 40//83
f  54//84 79//84 78//84
f  73//85 61//85 75//85
f  75//85 88//85 73//85
f  61//86 73//86 62//86
f  89//87 75//87 30//87
f  90//88 75//88 89//88
f  75//89 91//89 88//89
f  90//90 91//90 75//90
f  71//91 86//91 85//91
f  71//92 85//92 92//92
f  41//93 54//93 65//93
f  93//94 54//94 53//94
f  54//95 93//95 94//95
f  10//96 14//96 95//96
f  8//97 92//97 85//97
f  85//98 24//98 8//98
f  95//99 14//99 11//99
f  11//100 13//100 95//100
f  59//101 58//101 8//101
f  96//102 8//102 58//102
f  90//103 70//103 69//103
f  92//104 69//104 71//104
f  97//105 69//105 92//105
f  91//106 97//106 96//106
f  88//107 91//107 96//107
f  96//108 58//108 88//108
f  72//109 73//109 88//109
f  88//109 58//109 72//109
f  97//110 90//110 69//110
f  90//111 97//111 91//111
f  66//112 49//112 63//112
f  98//113 49//113 66//113
f  50//114 49//114 98//114
f  64//115 94//115 99//115
f  94//116 64//116 54//116
f  9//117 24//117 14//117
f  14//117 10//118 9//117
f  61//119 60//119 22//119
f  22//119 16//119 61//119
f  95//120 13//120 51//120
f  51//120 10//121 95//120
f  10//121 51//120 23//122
f  8//123 56//123 57//123
f  57//123 59//124 8//123
f  97//125 92//125 8//125
f  8//125 96//125 97//125
f  100//126 55//126 78//126
f  78//127 81//127 100//127
f  100//127 81//127 83//128
f  93//129 53//129 55//129
f  55//129 100//130 93//129
f  66//131 65//131 64//131
f  64//131 98//132 66//131
f  31//133 64//131 99//133
f  27//134 98//132 64//131
f  64//131 31//133 27//134
f  26//135 50//135 98//132
f  98//132 27//134 26//135
f  99//133 30//136 31//133
f  99//133 101//137 32//138
f  32//138 30//136 99//133
f  101//137 102//137 103//137
f  103//137 104//139 101//137
f  101//137 104//139 105//140
f  105//140 32//138 101//137
f  104//139 106//141 33//141
f  33//141 105//140 104//139
f  51//142 13//142 12//142
f  12//142 68//142 51//142
f  74//143 68//143 12//143
f  12//143 15//143 74//143
f  52//144 67//144 107//144
f  107//144 74//144 52//144
f  107//145 108//145 74//145
f  74//146 108//146 68//146
f  67//147 68//147 108//147
f  108//147 107//148 67//147
f  109//149 110//149 111//149
f  110//150 4//150 111//150
f  19//151 18//151 43//151
f  112//152 113//152 114//152
f  115//153 116//153 117//153
f  111//154 4//154 14//154
f  118//155 117//155 116//155
f  111//156 117//156 118//156
f  110//157 119//157 4//157
f  14//158 117//158 111//158
f  110//159 112//159 114//159
f  112//160 110//160 120//160
f  119//161 110//161 114//161
f  24//162 114//162 113//162
f  105//163 33//163 121//163
f  121//164 33//164 18//164
f  43//165 37//165 36//165
f  36//165 19//166 43//165
f  38//167 4//167 19//167
f  34//168 122//168 48//168
f  33//169 122//169 34//169
f  33//169 106//170 122//169
f  120//171 110//171 123//171
f  109//172 123//172 110//172
f  109//173 111//173 124//173
f  125//174 126//174 127//174
f  18//175 35//175 47//175
f  47//175 43//175 18//175
f  34//176 48//176 35//176
f  47//177 35//177 48//177
f  119//178 114//178 128//178
f  129//179 130//179 131//179
f  128//48 131//48 119//48
f  119//48 131//48 132//48
f  4//180 119//180 20//180
f  21//181 20//181 30//181
f  133//182 76//182 132//182
f  48//183 122//183 43//183
f  43//184 122//184 134//184
f  134//184 44//185 43//184
f  102//186 101//186 126//186
f  44//187 134//187 102//187
f  103//188 102//188 134//188
f  42//189 44//189 126//189
f  135//190 123//190 109//190
f  123//191 135//191 136//191
f  38//192 19//192 36//192
f  71//193 70//193 137//193
f  138//194 133//194 139//194
f  131//195 130//195 132//195
f  130//65 139//65 132//65
f  133//196 132//196 139//196
f  135//197 109//197 124//197
f  140//198 124//198 111//198
f  111//198 118//198 140//198
f  105//199 121//199 32//199
f  121//200 18//200 32//200
f  87//201 24//201 84//201
f  125//202 83//202 126//202
f  42//203 126//203 82//203
f  83//204 82//204 126//204
f  77//205 76//205 138//205
f  138//205 141//205 77//205
f  133//206 138//206 76//206
f  30//207 77//207 89//207
f  89//208 77//208 90//208
f  141//209 142//209 77//209
f  77//210 142//210 90//210
f  87//211 86//211 71//211
f  143//212 87//212 71//212
f  102//213 126//213 44//213
f  127//214 126//214 93//214
f  94//215 93//215 126//215
f  144//216 14//216 112//216
f  87//217 143//217 114//217
f  114//218 24//218 87//218
f  117//219 14//219 144//219
f  144//220 115//220 117//220
f  114//221 130//221 129//221
f  130//222 114//222 145//222
f  137//223 70//223 90//223
f  71//224 137//224 143//224
f  143//225 137//225 146//225
f  145//226 146//226 142//226
f  145//227 142//227 141//227
f  141//228 130//228 145//228
f  141//229 138//229 139//229
f  139//229 130//229 141//229
f  137//230 90//230 146//230
f  142//231 146//231 90//231
f  134//232 122//232 103//232
f  103//233 122//233 104//233
f  104//234 122//234 106//234
f  99//235 94//235 101//235
f  126//236 101//236 94//236
f  14//237 24//237 113//237
f  113//238 112//238 14//238
f  119//239 132//239 76//239
f  76//239 20//239 119//239
f  123//120 115//120 144//120
f  144//120 112//240 123//120
f  120//122 123//120 112//240
f  131//123 128//123 114//123
f  114//123 129//241 131//123
f  114//242 143//242 146//242
f  146//242 145//242 114//242
f  83//243 125//243 100//243
f  125//244 127//244 93//244
f  93//244 100//245 125//244
f  116//142 115//142 123//142
f  123//142 136//142 116//142
f  116//143 136//143 140//143
f  140//143 118//143 116//143
f  147//246 135//246 124//246
f  124//246 140//246 147//246
f  140//247 148//247 147//247
f  136//248 148//248 140//248
f  148//249 136//249 135//249
f  135//249 147//250 148//249

