<?xml version="1.0" encoding="UTF-8" standalone="no"?>
<!-- Created with Inkscape (http://www.inkscape.org/) -->

<svg
   xmlns:dc="http://purl.org/dc/elements/1.1/"
   xmlns:cc="http://creativecommons.org/ns#"
   xmlns:rdf="http://www.w3.org/1999/02/22-rdf-syntax-ns#"
   xmlns:svg="http://www.w3.org/2000/svg"
   xmlns="http://www.w3.org/2000/svg"
   version="1.1"
   width="350"
   height="580"
   id="svg2">
  <defs
     id="defs4" />
  <metadata
     id="metadata7">
    <rdf:RDF>
      <cc:Work
         rdf:about="">
        <dc:format>image/svg+xml</dc:format>
        <dc:type
           rdf:resource="http://purl.org/dc/dcmitype/StillImage" />
        <dc:title></dc:title>
      </cc:Work>
    </rdf:RDF>
  </metadata>
  <g
     transform="translate(-15.047241,-544.68109)"
     id="layer1"
     style="display:inline" />
  <g
     transform="translate(0,-617)"
     id="layer9"
     style="display:inline" />
  <g
     transform="translate(0,-617)"
     id="layer3"
     style="display:inline" />
  <g
     transform="translate(0,-617)"
     id="layer4"
     style="display:inline" />
  <g
     transform="translate(0,-617)"
     id="layer5"
     style="display:inline" />
  <g
     transform="translate(0,-617)"
     id="layer6" />
  <g
     transform="translate(0,-617)"
     id="layer7" />
  <g
     transform="translate(0,-617)"
     id="layer8" />
  <g
     transform="translate(0,-617)"
     id="layer10">
    <g
       transform="matrix(0.47628389,0,0,0.47622702,4.9666514,621.97812)"
       id="g3929">
      <path
         d="m 525.61726,1123.4387 c -20.31228,-7.0903 -32.27662,-16.4028 -57.23538,-44.5496 -18.64817,-21.0301 -30.02747,-38.1449 -42.71548,-64.2453 -7.8683,-16.18582 -9.43303,-27.40402 -5.47902,-39.28143 2.76446,-8.3042 6.14578,-13.0332 10.42559,-14.5808 4.29049,-1.5514 4.42697,-3.1525 1.03256,-12.1129 -1.35946,-3.5887 -6.1322,-16.1998 -10.60611,-28.0248 -4.4739,-11.825 -8.51569,-22.48674 -8.98175,-23.69276 l -0.84738,-2.19276 -8.79652,2.39305 c -20.42098,5.55543 -31.79857,6.85717 -60.54641,6.92725 -21.03505,0.0513 -26.74992,0.33871 -26.75,1.34535 -2e-4,2.59713 5.44046,14.2622 16.28094,34.90727 l 11.12526,21.1874 6.70136,1.5133 c 22.17887,5.0086 38.42543,15.78251 45.47144,30.15411 2.53366,5.1679 2.92019,7.08462 2.91556,14.45772 -0.004,7.1578 -0.43633,9.4218 -2.73473,14.3375 -3.51207,7.5114 -5.82756,10.1916 -15.94859,18.4606 -32.25243,26.3505 -71.46179,43.732 -124.31134,55.1074 -13.73908,2.9572 -19.23837,3.3638 -28.5,2.1069 -10.44299,-1.4171 -18.96628,-4.2609 -39,-13.0126 -18.91946,-8.265 -25.81812,-10.4453 -39.4575,-12.4705 -14.07439,-2.0899 -25.04199,-5.6795 -32.43331,-10.6152 -10.59141,-7.0727 -15.0143,-13.6378 -18.99207,-28.1907 -2.48063,-9.0755 -5.14617,-13.621 -11.40231,-19.444 -7.38473,-6.8734 -9.45592,-16.95562 -5.19516,-25.28902 2.91446,-5.7003 13.47676,-11.43971 29.98035,-16.29111 25.9988,-7.6425 49.69449,-11.1081 93.5,-13.6747 10.175,-0.5962 22.94513,-1.5216 28.37807,-2.0565 5.43294,-0.5349 16.34544,-1.2664 24.25,-1.6256 7.90456,-0.3591 14.37193,-0.7673 14.37193,-0.9069 0,-2.2694 -12.9391,-31.58979 -22.20016,-50.30634 -9.94323,-20.09519 -12.58772,-24.65665 -15.07335,-26 -7.83063,-4.23201 -31.76349,-20.79317 -39.32178,-27.21006 -14.1783,-12.03719 -27.61122,-27.92113 -34.3292,-40.59306 -3.09224,-5.83281 -3.54769,-6.23983 -8.24228,-7.36605 -10.64467,-2.55361 -26.27453,-12.49451 -34.96028,-22.23542 -19.30016,-21.64475 -30.99835,-50.80305 -38.34372,-95.57356 -4.14497,-25.26387 -5.89987,-45.99586 -5.89573,-69.65101 0.006,-32.5678 0.91194,-39.83257 11.91316,-95.5 2.98907,-15.125 7.44351,-38.49051 9.89876,-51.92335 l 4.4641,-24.42334 -7.75135,-10.57666 C 67.55034,401.71233 55.82146,382.0253 40.48325,349.14387 27.43952,321.18129 15.117256,277.81206 15.117256,259.86619 c 0,-25.01246 8.854184,-53.5917 24.733524,-79.83408 l 4.90845,-8.11176 -0.66299,-12.38824 C 43.7316,152.71858 42.87341,145.79387 42.18916,144.14387 39.25322,137.06412 35.01304,118.26513 33.91443,107.45753 32.88265,97.307396 32.949,94.546856 34.41918,86.457516 37.31726,70.51138 38.11726,57.47342 38.11726,26.187944 l 0,-30.2440071 2.88297,-3.979827 c 1.58564,-2.1889049 6.33473,-7.0939219 10.55355,-10.9000379 4.81039,-4.339817 10.25183,-10.701553 14.59309,-17.061173 9.39954,-13.769635 15.21689,-18.373 23.18827,-18.34927 4.21269,0.0125 12.56598,3.948383 15.77817,7.434249 4.90604,5.324016 3.58676,24.541387 -2.2678,33.033887 -1.14585,1.662152 -4.27444,5.3798329 -6.95241,8.2615119 -6.03435,6.49335797 -7.77584,10.541124 -7.77584,18.0734771 0,5.772266 1.74398,9.187106 4.6919,9.187106 1.82049,0 9.72471,-9.208934 16.3081,-19.0000001 3.51323,-5.225 8.42904,-11.682412 10.92404,-14.3498029 4.86048,-5.196323 12.4625,-9.650197 16.47129,-9.650197 4.65816,0 7.50925,-4.937762 13.56901,-23.5 3.64637,-11.169531 5.15896,-14.513491 8.71165,-19.259231 4.27348,-5.7086 14.06363,-9.2626 21.61375,-7.84619 4.72195,0.88584 10.92454,6.53081 13.77659,12.53804 1.32321,2.78706 2.86209,5.0657 3.41975,5.06364 0.55766,-0.002 2.58892,-0.96448 4.51392,-2.13873 8.09248,-4.9364 23.31336,-8.76053 38,-9.54722 24.31181,-1.30225 51.91553,6.32771 65,17.966682 2.475,2.201576 6.975,5.133414 10,6.515195 10.64807,4.863903 36.49899,21.287225 57,36.2126109 14.14488,10.297922 52.52426,36.9434831 57.5,39.9203831 4.51121,2.69898 9.5,7.03761 9.5,8.26191 0,2.15445 -14.81301,-0.13586 -30.86187,-4.7717 -4.59902,-1.32846 -10.39277,-2.41539 -12.875,-2.41539 l -4.51313,0 0.6452,3.22601 c 1.10089,5.50445 4.40828,11.216 10.20259,17.61892 6.86547,7.58659 5.70407,8.6057 -4.74441,4.16313 C 378.45119,52.77767 363.20139,39.457 343.15475,13.64386 339.09699,8.4188609 334.53447,2.7009049 333.01582,0.93729387 l -2.76119,-3.20656697 0.0289,7.365015 c 0.0159,4.050759 -0.67601,9.7897631 -1.53754,12.7533461 -1.75535,6.038185 -7.86591,15.959692 -12.24292,19.878422 -3.71036,3.32187 -13.38593,6.90905 -18.72478,6.94214 -3.87872,0.024 -4.39764,0.37442 -7.64873,5.16464 -6.84062,10.0791 -14.34568,14.31563 -35.01229,19.7641 -9.78584,2.5799 -10.48578,2.93065 -10.29088,5.15683 0.71329,8.147316 -3.52334,13.906636 -12.05424,16.386636 -2.86384,0.83254 -10.88962,1.94746 -17.83505,2.47759 -7.083,0.54063 -14.41633,1.6794 -16.70057,2.59338 -5.04888,2.02016 -18.76369,16.139154 -29.15547,30.014704 -10.2269,13.65538 -23.51235,27.18994 -31.08937,31.67232 -3.4486,2.0401 -6.65927,3.83897 -7.13482,3.99749 -0.96561,0.32187 2.02184,26.07126 5.77161,49.74653 5.93005,37.44108 24.07588,104.15024 37.60886,138.26074 4.33318,10.92198 13.76466,30.18787 14.44513,29.50739 0.24292,-0.24292 1.79763,-4.97408 3.45491,-10.51368 6.03364,-20.168 15.59514,-43.04406 25.9783,-62.15358 2.75087,-5.0628 5.00159,-9.61338 5.00159,-10.1124 0,-0.49902 -1.46796,-4.23593 -3.26213,-8.30426 -2.892,-6.55767 -4.12959,-8.09479 -10.9076,-13.54741 -16.51799,-13.28804 -28.75192,-29.01921 -39.20687,-50.41467 -6.08676,-12.45623 -8.09469,-20.52983 -7.42126,-29.83987 0.3882,-5.36686 0.83476,-6.49995 3.35303,-8.50795 3.96196,-3.15916 7.78372,-3.81699 13.29592,-2.28861 3.82968,1.06187 6.51581,3.15038 15.24299,11.85166 11.66437,11.62976 21.9527,26.17515 32.40445,45.81264 3.2932,6.1875 6.29335,11.25 6.667,11.25 0.37365,0 1.19394,-1.55918 1.82287,-3.46484 0.62892,-1.90567 2.41937,-4.83067 3.97876,-6.5 2.70503,-2.89576 3.20627,-3.03516 10.91372,-3.03516 l 8.07846,0 1.9156,-3.75489 c 1.05358,-2.06519 5.57785,-7.80269 10.05393,-12.75 4.47608,-4.94731 9.98945,-12.14511 12.25193,-15.99511 6.12722,-10.42652 20.26476,-23.9977 30.22722,-29.01631 6.70722,-3.37878 8.8588,-3.98369 14.16943,-3.98369 5.08343,0 6.70398,0.41577 8.61384,2.20999 l 2.35243,2.20999 5.46033,-2.70228 c 7.91093,-3.91508 17.2567,-4.23945 26.77501,-0.92931 l 7.15436,2.48804 -1.50119,-3.63821 c -0.82566,-2.00102 -2.77029,-5.43822 -4.32142,-7.63822 -4.73907,-6.72156 -5.52353,-8.62367 -3.96407,-9.61186 2.10005,-1.33074 7.03893,-1.04421 12.17679,0.70644 6.01542,2.04965 14.16301,10.87612 18.9839,20.56566 l 3.49726,7.02915 2.76381,-4.84469 c 3.02414,-5.30103 6.31451,-9.3447 7.60387,-9.3447 0.45306,0 0.71212,5.9625 0.57568,13.25 -0.3505,18.72157 -0.64486,18.13216 9.75021,19.52301 10.13974,1.35668 13.49807,3.11641 18.07319,9.47016 4.31004,5.98561 5.37349,10.63834 5.40409,23.64371 0.0236,10.04069 0.15646,10.65837 3.98538,18.53278 2.17852,4.48024 4.67607,11.05615 5.55012,14.61312 2.18095,8.87538 3.02159,29.65679 1.57414,38.91396 -3.34231,21.37567 -13.8528,38.9356 -29.60285,49.45763 -6.81718,4.5543 -8.36527,6.12544 -10.33922,10.49312 -3.00405,6.64696 -6.64923,9.31592 -17.65655,12.92789 -17.94326,5.88794 -63.67568,32.76445 -102.11853,60.01407 l -12.13196,8.59955 -0.63881,7.0305 c -0.63092,6.94368 -2.26946,13.62616 -4.55339,18.57014 -2.70566,5.85689 7.51976,23.40489 23.95612,41.11146 9.90689,10.67251 27.01892,25.38526 55,47.28848 19.24213,15.06248 24.71259,19.54683 35.24628,28.89277 20.5015,18.18981 26.91279,40.16596 17.50026,59.98608 -1.99592,4.20284 -5.7163,9.87308 -8.26751,12.60053 l -4.63856,4.959 4.06426,2.07343 4.06425,2.07343 4.26551,-2.03614 c 11.5133,-5.49588 20.29016,-15.28779 28.34821,-31.62667 5.83615,-11.83367 6.10157,-13.98437 2.99078,-24.23384 -1.39751,-4.60451 -2.29669,-8.76701 -1.99818,-9.25 1.12146,-1.81456 6.38531,-0.76345 13.16688,2.62924 13.23883,6.62312 28.25671,24.10621 32.76961,38.1488 l 1.65707,5.15621 4.92617,-3.06227 c 2.70939,-1.68426 5.14376,-2.84469 5.40971,-2.57874 0.26595,0.26594 -0.41718,4.49867 -1.51806,9.40606 -3.66877,16.35424 -3.60598,24.82492 0.40875,55.14518 5.37609,40.60165 4.7941,54.92297 -2.88951,71.10245 -2.97377,6.26192 -3.51061,8.46718 -3.5368,14.52869 -0.11069,25.62141 -7.86605,48.36635 -21.23466,62.27713 l -4.93095,5.13093 10.67131,24.86907 c 8.08149,18.83358 25.49656,56.95498 27.00234,59.10778 0.0918,0.1313 6.43455,2.0232 14.09491,4.2042 19.52211,5.5582 32.43305,10.0658 67.42793,23.5411 37.29674,14.36161 63.99737,24.23413 82.49997,30.50423 35.183,11.9228 55.7877,23.126 61.08239,33.212 3.4458,6.5639 -0.46809,19.0665 -7.08239,22.6242 -1.65,0.8874 -6.15,3.4887 -10,5.7804 -3.85,2.2918 -9.7,5.5275 -13,7.1905 -3.3,1.6629 -7.575,4.6887 -9.5,6.7239 -1.925,2.0351 -7.775,7.163 -13,11.3952 -30.85295,24.9908 -34.45671,26.3867 -60.91485,23.5945 -23.96353,-2.529 -36.25469,-1.7658 -57.08512,3.5443 -12.22128,3.1155 -25.46622,3.8478 -31.5,1.7416 z"
         transform="translate(-15.047241,72.318909)"
         id="path3010"
         style="fill:#000000;display:inline" />
      <path
         d="m 301.41058,969.12963 c -24.39053,-3.08539 -65.16177,-17.3189 -90.33673,-31.53716 -21.31563,-12.0386 -45.23624,-32.67048 -57.83241,-49.88132 -7.73123,-10.5636 -7.88819,-12.07289 -1.25556,-12.07289 7.53454,0 19.10982,-2.53492 27.4725,-6.01631 25.64558,-10.67628 45.9056,-32.94901 76.39438,-83.98369 12.4698,-20.87301 32.76291,-47.39021 39.22109,-51.25057 2.80861,-1.67883 24.36412,-3.4081 37.44483,-3.00397 6.73169,0.20798 9.70925,0.94051 19.5,4.79735 28.67128,11.29439 40.76385,17.54086 57.77949,29.84623 6.45376,4.66722 11.91832,8.30165 12.14347,8.0765 0.84616,-0.84616 -10.65163,-11.15692 -17.86464,-16.0203 -8.90864,-6.00665 -9.72242,-7.84985 -4.19672,-9.50539 7.97123,-2.38824 18.13735,-13.97295 26.08775,-29.72805 1.74525,-3.45851 3.60802,-6.01946 4.1395,-5.69098 1.90218,1.17561 0.13025,16.52653 -2.49884,21.64831 -0.37573,0.73198 0.0249,0.45779 0.89031,-0.60931 6.13217,-7.56136 7.39148,-26.20024 3.06129,-45.30982 -0.9854,-4.34869 0.93715,-4.31 8.91746,0.17947 6.92997,3.89858 17.22888,14.93893 21.14527,22.66757 5.21437,10.29006 6.81681,22.38946 3.89225,29.38892 -2.35905,5.64601 -1.06687,5.26954 2.36989,-0.69044 7.8724,-13.65223 11.25667,-14.1379 8.56799,-1.22958 -1.94324,9.32949 -1.38354,33.73566 1.17952,51.43406 3.5569,24.56107 2.78863,61.16197 -1.31689,62.7374 -2.04527,0.78485 -2.66069,-0.61481 -5.12681,-11.66008 -1.20253,-5.38591 -2.80838,-10.64315 -3.56856,-11.68276 -1.17322,-1.60448 -1.17224,-1.08094 0.007,3.4633 0.76377,2.94443 1.86478,10.88219 2.44668,17.63947 2.01422,23.39002 -2.01423,46.779 -11.17433,64.87747 -3.524,6.96179 -10.02731,15.6252 -11.72974,15.6252 -1.70618,0 -6.09676,-10.56399 -6.09638,-14.66821 3e-4,-3.13571 1.02373,-5.33179 2.48475,-5.33179 0.69882,0 1.83077,-0.675 2.51546,-1.5 1.69997,-2.04834 0.36231,-1.88521 -2.84563,0.34705 -5.26011,3.66025 -9.0612,4.25653 -23.15437,3.63223 -11.04466,-0.48925 -13.13625,-0.37 -11.5,0.65569 1.1,0.68955 3.575,1.52138 5.5,1.84851 2.7544,0.46809 3.43825,1.01252 3.21015,2.55566 -1.30746,8.84522 -13.2747,14.95283 -37.21015,18.99061 l -7.5,1.26521 8.0685,0.10252 8.0685,0.10252 2.61483,9.25 c 1.43816,5.0875 2.90648,10.00753 3.26294,10.9334 0.53221,1.38239 -0.64024,2.06709 -6.55673,3.8291 -17.06611,5.0825 -25.2756,6.13305 -50.95804,6.52097 -17.18664,0.25959 -27.83229,-0.0515 -35.66327,-1.0421 z"
         id="path3300"
         style="fill:#fefefe;display:inline" />
      <path
         d="m 156.50382,602.52494 c -0.37844,-0.61232 -2.655,-1.98338 -5.05902,-3.04679 -2.40402,-1.06341 -4.37095,-2.51464 -4.37095,-3.22495 0,-2.35032 6.9372,-24.95306 10.62397,-34.61494 10.60126,-27.78264 18.20171,-43 21.47673,-43 1.22734,0 0.36519,7.12939 -1.79267,14.82415 -0.82118,2.92829 -1.25888,5.55833 -0.97266,5.84455 0.87483,0.87483 7.25423,-20.86651 9.65909,-32.9187 0.76258,-3.82176 1.63251,-5.75 2.59412,-5.75 0.79573,0 4.43435,3.16697 8.08581,7.03771 11.67129,12.37219 29.22234,23.75535 39.23531,25.44703 8.76835,1.48141 3.33545,7.64827 -20.9097,23.7345 -21.7587,14.43651 -36.30097,26.06684 -47.20619,37.75363 -8.31663,8.91267 -10.01537,10.09568 -11.36384,7.91381 z"
         id="path3298"
         style="fill:#fefefe;display:inline" />
      <path
         d="m 388.10565,445.88826 c 0.0175,-0.9625 0.67403,-2.59826 1.45898,-3.63503 0.78494,-1.03676 1.71703,-3.81794 2.0713,-6.18039 0.90589,-6.0409 -2.33978,-11.65061 -8.49617,-14.68449 -4.06448,-2.00298 -6.07596,-2.25009 -18.31602,-2.25009 -7.56256,0 -13.75006,-0.39773 -13.75,-0.88383 6e-5,-0.48611 3.03939,-4.08611 6.75407,-8 23.90718,-25.18931 46.24604,-64.73444 46.24604,-81.86658 0,-8.61039 -2.92188,-14.37286 -9,-17.74959 -3.96,-2.2 -5.7,-2.5 -14.5,-2.5 -9.70102,0 -10.2629,0.12631 -18.79316,4.22463 -8.83753,4.24594 -21.33672,12.36106 -31.88095,20.69876 -7.87678,6.22846 -19.48235,19.78283 -27.99163,32.69199 -3.94612,5.98654 -7.71974,10.88462 -8.3858,10.88462 -0.66607,0 -1.74164,-2.1375 -2.39016,-4.75 -3.78469,-15.24626 -15.45918,-28.32964 -26.94487,-30.19658 -2.27405,-0.36964 -3.71174,-1.20612 -3.91853,-2.2799 -0.19494,-1.01226 3.78214,-6.44892 9.86452,-13.48479 16.00468,-18.5136 30.16545,-39.63182 33.06544,-49.31113 1.48665,-4.962 0.0903,-8.6345 -3.63879,-9.57045 -3.65196,-0.91659 -12.04258,2.53435 -19.48727,8.01482 -5.99342,4.4121 -7.9988,4.94348 -7.9988,2.11948 0,-2.52784 16.56849,-17.97928 23.99836,-22.38039 8.25047,-4.88719 16.16999,-6.47929 20.55532,-4.13233 3.52114,1.88445 4.94597,7.85817 3.54188,14.84963 -0.60254,3.00026 -0.91819,5.63234 -0.70145,5.84908 0.33249,0.33249 3.04279,-6.45202 4.16385,-10.42305 0.52547,-1.86134 6.92955,-0.49238 15.94204,3.40784 4.4,1.90412 8.675,3.93841 9.5,4.52063 0.825,0.58222 -0.3,-0.56411 -2.5,-2.5474 -4.46464,-4.02486 -8.59881,-6.28107 -16,-8.73194 -2.75,-0.91065 -5.12535,-2.29312 -5.27855,-3.07215 -0.48732,-2.47796 5.45176,-5.01156 13.0685,-5.575 9.07616,-0.67139 16.55921,1.38024 24.46829,6.70849 3.15797,2.12749 5.86233,3.53278 6.00969,3.12287 0.62994,-1.75231 -4.91476,-14.61021 -8.67739,-20.12247 -4.57391,-6.70078 -4.93678,-8.01526 -2.21266,-8.01526 9.6735,0 21.16464,14.35997 26.60732,33.25 0.9112,3.1625 1.81489,5.75 2.00821,5.75 0.19332,0 0.89328,-1.6875 1.55547,-3.75 1.24211,-3.86878 3.62348,-7.25 5.10611,-7.25 0.46475,0 0.84501,1.95348 0.84501,4.34107 0,2.38759 0.67013,6.55009 1.48918,9.25 0.81904,2.69991 1.49404,4.98241 1.5,5.07221 0.006,0.0898 -2.99485,1.13431 -6.66844,2.32113 -7.49536,2.4215 -12.62048,4.94496 -16.32074,8.03587 -2.24039,1.87143 -1.98077,1.8351 2.5,-0.34993 2.75,-1.34103 8.48621,-3.67335 12.74713,-5.18294 6.64766,-2.35519 8.86311,-2.68011 15.61064,-2.2895 5.34215,0.30925 8.95029,1.08665 11.25287,2.42452 4.77651,2.77529 9.55052,11.14807 10.36533,18.17901 0.78133,6.74191 -1.28535,20.8613 -4.85992,33.20268 -1.35201,4.66788 -2.31911,8.62615 -2.14911,8.79615 0.16999,0.17 2.14698,-3.54052 4.39331,-8.24559 2.24632,-4.70507 4.49785,-8.55468 5.0034,-8.55468 1.16086,0 3.57508,5.9999 6.14318,15.26721 1.5998,5.77306 1.99317,10.28289 1.99317,22.85082 0,13.74914 -0.30843,16.7387 -2.52973,24.5201 -1.39136,4.87403 -3.85252,11.58898 -5.46925,14.92211 -5.54244,11.42657 -17.77641,25.43976 -22.20973,25.43976 -1.49331,0 -1.68057,-0.70373 -1.26393,-4.75 0.39332,-3.81977 0.0253,-3.08538 -1.87913,3.75 -3.20994,11.52099 -3.91026,13.04119 -7.72687,16.77263 -3.63601,3.55487 -7.94197,4.36119 -7.88956,1.47737 z"
         id="path3296"
         style="fill:#fefefe;display:inline" />
      <path
         d="m 50.062364,323.38826 c -1.378276,-3.20164 -8.755208,-30.46899 -9.536566,-35.25 -0.359545,-2.2 -1.743511,-9.4 -3.07548,-16 -1.432254,-7.09692 -2.682358,-17.68291 -3.059556,-25.90859 -0.634904,-13.84558 -0.628137,-13.90606 1.493796,-13.35116 2.089906,0.54652 2.10091,0.48607 0.562727,-3.09141 -10.732886,-24.96238 -15.146658,-57.17755 -10.797808,-78.81087 1.148181,-5.71162 1.78681,-17.78252 2.354058,-44.4947 0.717642,-33.794416 0.926468,-36.844438 2.674367,-39.060579 1.042769,-1.322114 5.831285,-6.664198 10.641147,-11.871298 4.809862,-5.2071 11.809967,-13.504606 15.555789,-18.438901 9.902371,-13.044192 17.300289,-16.380788 24.88256,-11.222488 4.42126,3.007831 6.318472,7.340062 6.306678,14.401129 -0.01384,8.288332 -3.24742,14.546611 -12.543454,24.276661 -5.17249,5.413984 -7.136102,8.07221 -5.962883,8.07221 1.412548,0 1.613539,0.529343 1.04417,2.75 -1.224208,4.774668 -1.755413,11.208034 -1.130906,13.696268 0.878015,3.498289 5.465267,8.553732 7.76156,8.553732 4.626476,0 10.93091,-6.088641 19.008107,-18.357484 12.48617,-18.965834 18.92165,-24.479161 26.98364,-23.117096 5.32256,0.899241 7.06733,3.026359 13.51329,16.47458 3.03168,6.325 7.77464,16.148581 10.53991,21.830181 l 5.02778,10.330175 -1.80401,4.00057 c -3.10382,6.88305 -16.52382,16.83907 -22.69784,16.83907 -3.72614,0 -12.4732,-4.8656 -15.62837,-8.69337 -4.46905,-5.42173 -7.96805,-12.48074 -10.16002,-20.497226 l -1.99864,-7.3094 0.46813,7.968501 0.46813,7.968495 -6.951349,6.91014 c -16.272817,16.17635 -24.570539,31.83727 -21.975227,41.47553 1.932608,7.17715 9.087831,14.37726 18.744047,18.86161 4.545461,2.11091 5.578773,3.17856 8.25,8.52416 3.720809,7.446 4.003619,14.03487 0.986799,22.99018 -2.44785,7.26631 -5.488857,11.86528 -14.071319,21.28027 l -6.361776,6.97889 5.30397,-4.47889 c 6.71807,-5.67302 14.790913,-16.43742 17.423625,-23.23281 2.86326,-7.39049 2.87214,-16.0291 0.0224,-21.8118 -3.608859,-7.32313 -3.513734,-7.42504 7.00253,-7.50164 7.70084,-0.0561 10.83531,-0.61014 18.74135,-3.31265 12.3816,-4.23239 25.82419,-11.72777 35.34869,-19.70989 4.20253,-3.52198 11.80717,-8.70284 16.89919,-11.51303 5.09203,-2.81019 11.60143,-6.86165 14.46533,-9.00325 2.8639,-2.1416 5.91586,-3.89382 6.78212,-3.89382 3.25316,0 8.6345,3.03557 13.57695,7.65865 6.47363,6.05532 7.93384,8.92968 7.93384,15.61738 0,4.48545 -0.42721,5.77669 -2.58053,7.79966 -2.43428,2.28691 -3.29856,2.43095 -15.25,2.54152 -24.48467,0.22653 -34.72855,6.52042 -59.14552,36.33935 -17.3935,21.24159 -23.27336,26.40717 -38.20268,33.56186 -6.34587,3.04117 -6.99972,4.23231 -1.93494,3.52492 2.29365,-0.32035 0.94491,13.44339 -1.85762,18.95666 -4.146871,8.15794 -23.299451,38.91001 -29.894691,48 -5.800382,7.99446 -20.3174,24 -21.767991,24 -0.7749,0 -1.844781,-1.0125 -2.377513,-2.25 z"
         id="path3294"
         style="fill:#fefefe;display:inline" />
      <path
         d="m 206.07385,124.24251 c 0,-3.3953 19.37235,-13.03138 34,-16.91207 10.94423,-2.90349 24,-3.62801 24,-1.33185 0,1.04809 -2.17613,1.52234 -8.75,1.90693 -6.94528,0.40631 -10.50316,1.23366 -17.25,4.01128 -12.62033,5.19571 -17.91936,7.69033 -23.07771,10.86429 -4.99267,3.07202 -8.92229,3.71567 -8.92229,1.46142 z"
         id="path3292"
         style="fill:#fefefe;display:inline" />
      <path
         d="m 171.07385,76.138264 c 0.68469,-0.825 1.46989,-1.5 1.74489,-1.5 0.275,0 -0.0602,0.675 -0.74489,1.5 -0.68469,0.825 -1.46989,1.5 -1.74489,1.5 -0.275,0 0.0602,-0.675 0.74489,-1.5 z"
         id="path3290"
         style="fill:#fefefe;display:inline" />
      <path
         d="m 154.02002,72.888264 -3.44617,-3.75 3.75,3.446167 c 3.49042,3.207617 4.20979,4.053833 3.44617,4.053833 -0.16711,0 -1.85461,-1.6875 -3.75,-3.75 z"
         id="path3288"
         style="fill:#fefefe;display:inline" />
      <path
         d="m 136.07385,59.245253 c 0,-0.216156 0.69837,-0.661002 1.55194,-0.988546 0.88992,-0.341496 1.29132,-0.173849 0.94098,0.393011 -0.58726,0.950204 -2.49292,1.405448 -2.49292,0.595535 z"
         id="path3286"
         style="fill:#fefefe;display:inline" />
      <path
         d="m 182.23174,47.638264 c 0,-1.375 0.22698,-1.9375 0.50439,-1.25 0.27741,0.6875 0.27741,1.8125 0,2.5 -0.27741,0.6875 -0.50439,0.125 -0.50439,-1.25 z"
         id="path3284"
         style="fill:#fefefe;display:inline" />
      <path
         d="m 142.1528,47.221597 c -0.0434,-1.054166 0.19292,-1.644791 0.52522,-1.3125 0.33229,0.332292 0.36781,1.194792 0.0789,1.916667 -0.31922,0.797733 -0.55618,0.560776 -0.60416,-0.604167 z"
         id="path3282"
         style="fill:#fefefe;display:inline" />
      <path
         d="m 140.07385,40.697281 c 0,-0.517541 0.45,-1.219098 1,-1.559017 0.55,-0.339919 1,0.08352 1,0.940983 0,0.857459 -0.45,1.559017 -1,1.559017 -0.55,0 -1,-0.423442 -1,-0.940983 z"
         id="path3280"
         style="fill:#fefefe;display:inline" />
      <path
         d="m 150.07385,9.1382632 c 0.68469,-0.825 1.46989,-1.5 1.74489,-1.5 0.275,0 -0.0602,0.675 -0.74489,1.5 -0.68469,0.825 -1.46989,1.4999998 -1.74489,1.4999998 -0.275,0 0.0602,-0.6749998 0.74489,-1.4999998 z"
         id="path3278"
         style="fill:#fefefe;display:inline" />
      <path
         d="m 169.47884,8.3882632 -1.90499,-2.25 2.25,1.9049876 c 1.2375,1.0477431 2.25,2.0602432 2.25,2.2500002 0,0.800253 -0.80479,0.209457 -2.59501,-1.9049878 z"
         id="path3276"
         style="fill:#fefefe;display:inline" />
      <path
         d="m 165.07385,5.6382632 c -0.90129,-0.5824596 -1.02463,-0.9754864 -0.30902,-0.9846872 0.65504,-0.00842 1.4691,0.4346872 1.80902,0.9846872 0.7673,1.2415252 0.42112,1.2415252 -1.5,0 z"
         id="path3270"
         style="fill:#fefefe;display:inline" />
      <path
         d="m 161.00051,77.66081 c -8.79059,-4.647185 -16.26014,-17.364934 -18.37019,-31.277344 -1.46697,-9.67236 -3.12394,-8.403429 -2.30754,1.767155 0.80017,9.96843 -3.16983,13.643288 -8.05513,7.456288 l -2.30621,-2.920697 2.47428,-4.273974 c 1.36085,-2.350686 3.9215,-8.998974 5.69033,-14.773974 5.44043,-17.762259 9.73442,-24.11918 18.5719,-27.4942454 5.8647,-2.2397481 8.92479,-1.36689 13.89336,3.9629354 6.57014,7.047846 11.20618,24.378855 12.1852,45.552264 l 0.57895,12.520954 -6.13724,3.788117 c -3.37547,2.083465 -6.60467,4.661535 -7.17598,5.729046 -1.29701,2.423479 -4.4122,2.410895 -9.04173,-0.03652 z"
         id="path3268"
         style="fill:#ececec;display:inline" />
      <path
         d="m 161.00051,76.650657 c -8.79059,-4.647185 -16.26014,-17.364934 -18.37019,-31.277344 -1.46697,-9.67236 -3.12394,-8.403429 -2.30754,1.767155 0.80017,9.96843 -3.16983,13.643288 -8.05513,7.456288 l -2.30621,-2.920697 2.47428,-4.273974 c 1.36085,-2.350686 3.9215,-8.998974 5.69033,-14.773974 5.44043,-17.762259 9.73442,-24.1191796 18.5719,-27.494245 5.8647,-2.2397481 8.92479,-1.36689 13.89336,3.9629352 6.57014,7.0478458 11.20618,24.3788548 12.1852,45.5522638 l 0.57895,12.520954 -6.13724,3.788117 c -3.37547,2.083465 -6.60467,4.661535 -7.17598,5.729046 -1.29701,2.423479 -4.4122,2.410895 -9.04173,-0.03652 z"
         id="path3264"
         style="fill:#ececec;display:inline" />
      <path
         d="m 161.00051,76.650657 c -8.79059,-4.647185 -16.26014,-17.364934 -18.37019,-31.277344 -1.46697,-9.67236 -3.12394,-8.403429 -2.30754,1.767155 0.80017,9.96843 -3.16983,13.643288 -8.05513,7.456288 l -2.30621,-2.920697 2.47428,-4.273974 c 1.36085,-2.350686 3.9215,-8.998974 5.69033,-14.773974 5.44043,-17.762259 9.73442,-24.1191796 18.5719,-27.494245 5.8647,-2.2397481 8.92479,-1.36689 13.89336,3.9629352 6.57014,7.0478458 11.20618,24.3788548 12.1852,45.5522638 l 0.57895,12.520954 -6.13724,3.788117 c -3.37547,2.083465 -6.60467,4.661535 -7.17598,5.729046 -1.29701,2.423479 -4.4122,2.410895 -9.04173,-0.03652 z"
         id="path3262"
         style="fill:#ececec;display:inline" />
      <path
         d="m 138.0102,868.87662 c -15.7715,-2.78296 -34.09916,-18.37817 -47.099571,-40.07754 -11.57619,-19.32218 -21.15172,-50.4892 -27.00364,-87.89318 -2.6627,-17.01926 -3.80796,-65.82419 -1.95575,-83.3437 0.64871,-6.13597 5.17742,-31.4063 10.0638,-56.1563 10.22157,-51.77323 13.79363,-77.26682 14.66997,-104.69883 0.51341,-16.07105 0.32848,-20.7194 -1.10502,-27.77562 -2.90507,-14.29978 -3.61662,-12.79025 -2.81623,5.97445 0.99779,23.39283 0.94094,30.26301 -0.25356,30.63729 -2.13667,0.6695 -19.69218,-25.38809 -32.72039,-48.56677 -11.39033,-20.26468 -27.40553,-55.99701 -26.34109,-58.77091 0.38817,-1.01156 1.60902,-0.85752 5.56637,0.70232 3.29294,1.29795 7.42933,1.99807 11.80488,1.99807 5.96534,0 7.47657,-0.4289 13.21298,-3.75 15.05849,-8.71811 27.9851,-25.66651 49.766421,-65.25 7.11214,-12.925 13.28769,-23.5 13.72343,-23.5 0.43575,0 2.51426,7.62126 4.61891,16.93612 8.38951,37.13058 20.61289,76.55317 32.46366,104.7011 2.97266,7.06065 5.40483,13.27739 5.40483,13.81498 0,0.53759 -1.0125,1.51454 -2.25,2.171 -4.84093,2.56798 -17.61674,12.95057 -22.47003,18.26084 -16.97634,18.57483 -27.00984,42.83692 -29.8197,72.10727 -0.40604,4.22972 -1.61179,8.84759 -3.05249,11.69069 -3.502481,6.91179 -6.195781,17.87976 -7.424141,30.23344 l -1.08536,10.91544 -4.81205,5.26515 c -9.78116,10.70215 -19.91649,35.94986 -18.57072,46.26077 1.44676,11.08458 5.75203,17.30314 13.12203,18.95353 5.08857,1.13951 13.12016,-0.0296 19.726181,-2.87145 l 4.90154,-2.10859 5.11737,4.94508 c 2.81455,2.71979 5.83453,5.19186 6.71106,5.49349 1.25064,0.43036 1.73339,2.68002 2.24266,10.45109 0.68303,10.42258 3.41287,22.90981 6.22422,28.47177 3.2079,6.34648 9.29936,13.51393 12.96255,15.25222 5.5123,2.61576 11.08422,1.41931 18.37076,-3.94473 9.13568,-6.72531 16.57843,-17.80566 24.43603,-36.37903 l 4.17009,-9.85701 18.5,-17.77656 c 21.72514,-20.87559 31.38869,-29.17733 43,-36.94036 12.98351,-8.68046 24.02229,-13.58065 32.12344,-14.25982 l 6.77903,-0.56833 6.79876,6.49293 c 7.78556,7.43534 25.7612,21.74438 41.79877,33.27283 22.52081,16.18887 38.88891,30.92175 48.44869,43.60854 5.01329,6.65313 6.15221,8.9743 7.60296,15.49515 3.16034,14.20514 0.0963,25.61769 -9.64259,35.91509 -2.85955,3.02355 -5.6964,5.48668 -6.30412,5.47362 -0.60772,-0.0131 -3.80494,-1.17547 -7.10494,-2.58316 -3.3,-1.40768 -10.01752,-3.6699 -14.92781,-5.02714 -10.62174,-2.93593 -11.00712,-3.13697 -9.4983,-4.95499 1.00359,-1.20926 -3.09957,-1.41155 -28.70145,-1.41505 -40.72146,-0.006 -64.582,-2.35555 -95.98608,-9.45349 -5.94947,-1.3447 -10.98492,-2.27721 -11.18989,-2.07224 -0.3808,0.38081 17.87995,6.43908 25.55353,8.47777 2.3375,0.62102 4.25,1.52603 4.25,2.01113 0,1.18714 -2.72441,1.68822 -21.91299,4.03027 -9.02714,1.1018 -16.57413,2.16443 -16.7711,2.3614 -0.19697,0.19696 2.80745,0.65233 6.67649,1.01192 8.15304,0.75774 21.28233,-0.54801 34.66568,-3.44762 8.85403,-1.9183 9.84145,-1.94772 17.11896,-0.51005 6.91577,1.3662 24.69869,3.59499 28.68355,3.59499 2.79006,0 1.6303,1.7879 -6.31116,9.72936 -9.3508,9.3508 -20.58893,24.30998 -39.65047,52.77913 -7.73644,11.55466 -16.44568,24.15466 -19.35387,28 -14.01376,18.52957 -33.03247,35.84535 -45.65858,41.5703 -11.44872,5.1911 -26.92511,7.10844 -39.48651,4.89193 z"
         id="path3226"
         style="fill:#2d7eb6;display:inline" />
      <path
         d="m 217.45545,595.35298 c -4.46843,-5.8643 -17.70811,-7.01774 -33.72301,-2.93796 -5.37777,1.36998 -10.23111,2.49088 -10.78519,2.49088 -3.7164,0 12.16296,-14.30068 26.82006,-24.15368 20.03783,-13.47012 41.24289,-30.70701 41.24289,-33.52499 0,-0.77274 2.8125,-2.6698 6.25,-4.21569 3.4375,-1.5459 8.0003,-4.00208 10.13955,-5.45818 2.13925,-1.4561 4.26817,-2.64746 4.73094,-2.64746 1.83248,0 1.88035,4.81823 0.1044,10.50786 -2.22282,7.1213 -5.32934,12.23076 -12.76624,20.99731 -3.03036,3.57216 -5.09343,6.49483 -4.5846,6.49483 0.50882,0 3.3207,-1.8 6.24863,-4 2.92792,-2.2 5.60201,-4 5.94242,-4 0.70936,0 6.34325,13.97544 5.79533,14.3759 -0.19824,0.14489 -2.38543,0.83384 -4.86043,1.531 -8.1252,2.28873 -16.90564,8.05128 -26.93358,17.67634 -5.39601,5.17922 -10.23055,9.41676 -10.74342,9.41676 -0.51288,0 -1.80786,-1.14881 -2.87775,-2.55292 z"
         id="path3224"
         style="fill:#2d7eb6;display:inline" />
      <path
         d="m 145.5742,575.25765 c -1.56309,-21.87538 -5.2792,-35.24533 -11.54884,-41.55085 l -3.67806,-3.69909 3.23574,-9.88983 c 5.28266,-16.14609 12.03277,-28.26787 21.51242,-38.63183 5.97843,-6.53612 14.42926,-13.58015 16.29232,-13.58015 0.65888,0 2.35046,3.51545 3.75905,7.81212 l 2.56107,7.81212 -6.09885,4.99967 c -5.59889,4.58982 -14.60772,16.1854 -14.59239,18.78237 0.004,0.60155 1.90823,-1.15628 4.23262,-3.90628 9.4193,-11.14403 15.1426,-16.58921 17.12635,-16.29409 1.13006,0.16811 3.02026,2.17451 4.41268,4.68393 2.30527,4.15456 2.36928,4.70343 1.19422,10.24053 -0.95687,4.50899 -2.43051,7.34265 -6.42612,12.35674 -9.96348,12.50317 -18.9551,32.11983 -27.04954,59.01289 -1.48989,4.95 -3.06692,9.38329 -3.50453,9.85175 -0.43761,0.46847 -1.08027,-3.13153 -1.42814,-8 z"
         id="path3222"
         style="fill:#2d7eb6;display:inline" />
      <path
         d="m 16.331969,367.64559 c -1.74803,-0.68183 -3.41273,-1.47939 -3.69934,-1.77236 -0.91726,-0.93761 -5.6760496,-24.24704 -5.0732796,-24.84981 0.31898,-0.31898 1.96853,0.21696 3.6656596,1.19098 7.33593,4.21025 19.2302,2.63834 29.56136,-3.90672 7.74315,-4.90549 27.29832,-24.74691 35.87661,-36.40178 8.36204,-11.36105 17.51039,-26.32269 25.681061,-42 3.29645,-6.325 6.14488,-11.6875 6.32985,-11.91667 0.84252,-1.04383 1.65119,1.40015 3.01222,9.10359 1.71318,9.69661 1.26801,15.15716 -1.4806,18.16137 -1.08275,1.18344 -6.80988,10.47671 -12.726951,20.65171 -5.91706,10.175 -15.38475,25.25 -21.0393,33.5 -19.95248,29.11069 -31.41767,38.31016 -48.73463,39.10382 -5.03724,0.23086 -9.41895,-0.10208 -11.37266,-0.86413 z"
         id="path3220"
         style="fill:#2d7eb6;display:inline" />
      <path
         d="m 11.010199,338.23574 -5.4999996,-2.82984 -0.32384,-7 c -0.52535,-11.35549 2.29953,-25.98782 8.1463296,-42.19652 3.27608,-9.08206 14.59649,-31.71784 15.44039,-30.87393 0.35273,0.35272 1.67547,6.79979 2.93943,14.32682 2.55006,15.18587 7.09012,34.77918 11.40641,49.22606 l 2.83306,9.48242 -3.08381,3.18169 c -4.11274,4.24327 -13.75974,8.45201 -20.71619,9.03794 -4.7901,0.40346 -6.47205,0.048 -11.14178,-2.35464 z"
         id="path3218"
         style="fill:#2d7eb6;display:inline" />
      <path
         d="m 93.510199,168.56319 c -6.70796,-1.75111 -12.36532,-4.805 -16,-8.63693 -2.81496,-2.96773 -2.99588,-3.63643 -2.93315,-10.84159 0.0958,-11.00419 3.18306,-16.80639 16.01014,-30.08953 9.694711,-10.03941 10.138461,-10.36232 11.697601,-8.51226 0.89134,1.05766 4.87024,5.41052 8.84201,9.67302 l 7.2214,7.75 5.581,-0.01 c 7.38112,-0.0129 13.98323,-3.1536 21.75538,-10.34925 6.7657,-6.26361 9.32562,-10.65863 9.32562,-16.0105 0,-2.777174 -0.33588,-3.438595 -1.51618,-2.985672 -1.14005,0.437478 -2.72765,-1.989068 -6.39962,-9.781385 -11.22299,-23.816407 -11.74039,-37.234342 -0.78369,-20.323934 3.73302,5.761494 6.02898,8.137483 10.32497,10.684886 5.47788,3.248229 5.5193,3.308805 4.91237,7.184095 l -0.61209,3.908244 9.81537,-9.408244 c 5.51095,-5.282357 12.43422,-10.821811 15.78712,-12.631596 5.07892,-2.741434 5.56345,-3.227336 3.2408,-3.25 -3.22972,-0.03152 -3.27722,-0.186615 -4.75558,-15.526648 -0.58306,-6.05 -1.58717,-14.261365 -2.23136,-18.247479 -1.39419,-8.6269 -1.42378,-8.589051 10.30093,-13.179636 15.39206,-6.026466 51.49453,-6.41882 67.83207,-0.737183 10.95072,3.808284 21.51979,10.356588 30.17025,18.692657 12.3813,11.931317 16.60392,23.256899 15.64868,41.971641 -1.02428,20.067558 -10.05755,32.574884 -25.00668,34.623894 l -4.26029,0.58394 -2.65317,-5.85392 c -3.22359,-7.11251 -6.50334,-15.836853 -7.4204,-19.738791 l -0.67802,-2.884877 4.74904,0.712163 c 5.85972,0.878719 5.37875,-0.739504 -1.0673,-3.590896 -7.48148,-3.309415 -15.4319,-3.434949 -27.89722,-0.440484 -6.05,1.453353 -11.7875,2.885749 -12.75,3.183103 -2.26492,0.699721 -2.26492,-1.35575 0,-3.910901 1.70863,-1.927578 1.6909,-1.943671 -0.75,-0.680744 -9.45726,4.893209 -23.55642,17.971206 -40.07425,37.171787 -21.99883,25.57179 -30.09389,33.05707 -45.46952,42.04441 -11.95497,6.9879 -21.77959,9.9486 -34.45623,10.38357 -6.57639,0.22566 -12.368391,-0.12745 -15.500001,-0.94496 z"
         id="path3214"
         style="fill:#2d7eb6;display:inline" />
      <path
         d="m 312.21833,420.08227 c -4.71469,-2.90928 -13.42089,-12.70779 -15.53235,-17.48108 -1.0563,-2.38796 -2.41371,-6.64127 -3.01647,-9.4518 -1.0757,-5.01584 -1.01178,-5.27295 3.4666,-13.94392 9.52983,-18.45152 28.95163,-40.15079 46.58222,-52.04464 26.01275,-17.54856 50.77336,-20.93234 54.80106,-7.48908 3.13843,10.47513 -0.0344,24.02173 -10.45889,44.65466 -4.90633,9.711 -15.97819,24.1834 -16.91869,22.115 -2.1589,-4.74798 -3.43045,-6.24054 -6.66654,-7.82527 -3.52564,-1.72653 -4.03912,-1.73638 -9.49211,-0.18211 -10.34561,2.94882 -24.17158,13.95462 -30.25337,24.08241 -1.91869,3.19514 -4.47854,8.75114 -5.68855,12.34667 -1.21,3.59553 -2.56516,6.65727 -3.01146,6.80385 -0.4463,0.14658 -2.16145,-0.56653 -3.81145,-1.58469 z"
         id="path3138"
         style="fill:#cbebf3;display:inline" />
      <path
         d="m 241.15356,335.44787 c -1.53819,-8.19927 2.84418,-18.41262 14.62725,-34.08958 12.61835,-16.78828 32.54078,-32.41688 41.32315,-32.41688 4.24584,0 4.43544,0.85485 2.01141,9.0685 -2.55838,8.66887 -13.64472,27.07498 -21.16486,35.13897 l -2.52487,2.70747 -2.48851,-1.95747 c -3.18494,-2.50527 -4.61309,-2.45283 -10.72608,0.39384 -7.47902,3.4828 -13.20046,10.67891 -16.0197,20.14869 -1.58196,5.31378 -4.13408,5.82365 -5.03779,1.00646 z"
         id="path3067"
         style="fill:#cbebf3;display:inline" />
      <path
         d="m 193.46189,659.53665 c 0.882,-3.51415 4.95769,-9.30133 12.5686,-17.84648 12.18437,-13.68002 15.98223,-21.45644 15.98223,-32.72496 l 0,-5.90709 6.75,-6.66537 c 17.9608,-17.73559 22.33899,-20.89227 32.1965,-23.2137 5.29114,-1.24605 5.49081,-1.21505 7,1.08706 0.85442,1.30334 5.23747,7.10693 9.7401,12.89688 8.66023,11.13623 8.77678,11.78166 2.15919,11.95689 -4.40048,0.11653 -16.76198,4.73734 -23.24929,8.69075 -10.76886,6.5626 -21.64849,15.66678 -42.10318,35.23236 -10.99633,10.51834 -20.3796,19.12941 -20.85173,19.13572 -0.47212,0.006 -0.55871,-1.18262 -0.19242,-2.64206 z"
         id="path3124"
         style="fill:#fdfd04;display:inline" />
      <path
         d="m 109.55427,531.44017 c 2.04013,-14.59226 6.46191,-29.39751 12.11476,-40.56332 7.22438,-14.26998 22.57067,-32.05635 34.71147,-40.23063 5.73417,-3.86076 5.89979,-3.90524 7.27364,-1.95339 0.77322,1.09854 3.20566,4.47234 5.40542,7.49734 4.29012,5.89956 4.57019,7.65208 1.50106,9.39282 -16.11349,9.13916 -32.18772,31.01489 -40.06273,54.52214 l -3.21102,9.58504 -4.73363,0.68091 c -2.6035,0.37451 -6.40187,1.83701 -8.44083,3.25 -2.03896,1.413 -4.04808,2.56909 -4.46471,2.56909 -0.41664,0 -0.45868,-2.1375 -0.0934,-4.75 z"
         id="path3122"
         style="fill:#fdfd04;display:inline" />
      <path
         d="m 27.512721,396.32669 c -2.2,-1.00076 -4.5183,-2.45338 -5.15178,-3.22804 -1.24649,-1.5243 -7.77085,-21.82141 -7.19697,-22.38962 0.19181,-0.18992 2.37375,0.046 4.84875,0.52437 11.75999,2.27273 18.60141,0.62163 30.5,-7.36088 13.3473,-8.9544 26.32743,-25.57872 43.47635,-55.68235 10.590249,-18.5904 18.292039,-31 19.239559,-31 0.88204,0 1.23403,1.48939 3.27917,13.87536 l 1.54803,9.37536 -2.41591,4.12464 c -1.32876,2.26855 -7.44231,13.76277 -13.58568,25.5427 -6.143369,11.77994 -14.314869,26.03855 -18.158899,31.6858 -11.54588,16.96202 -24.40969,29.55443 -35.19223,34.44976 -5.53681,2.51374 -15.75868,2.55373 -21.19039,0.0829 z"
         id="path3081"
         style="fill:#fdfd04;display:inline" />
      <path
         d="m 143.33795,715.83506 c -4.82368,-2.94134 -8.13472,-8.02251 -11.26806,-17.29215 -3.97564,-11.7615 -5.40311,-21.20979 -4.61105,-30.52007 0.92317,-10.85145 2.90852,-17.23635 6.73651,-21.66468 l 3.285,-3.80019 5.34637,3.59785 c 2.94051,1.97881 6.51426,3.59784 7.94167,3.59784 2.36066,0 2.19336,-0.25754 -1.85049,-2.84868 -7.31722,-4.68859 -8.3261,-6.34196 -8.13352,-13.32939 0.1484,-5.38458 0.66815,-6.86504 4.29162,-12.22424 4.68566,-6.9302 9.35422,-10.72501 19.39612,-15.76601 11.55721,-5.80167 14.36337,-6.8428 24.39322,-9.05029 18.43109,-4.05652 24.03132,-3.39475 27.35523,3.23252 2.44587,4.87663 2.18096,11.51115 -0.7592,19.01353 -3.18904,8.13743 -5.39343,11.4288 -17.84311,26.64146 -11.38937,13.91703 -20.64614,26.35535 -20.64614,27.74221 0,0.50692 1.73088,-0.95321 3.84639,-3.24472 2.11551,-2.29151 4.36551,-4.16639 5,-4.16639 1.49507,0 1.66065,-0.64499 -2.25206,8.77295 -6.87838,16.55635 -18.22651,34.32747 -25.43559,39.83202 -5.19324,3.96533 -9.93507,4.4386 -14.79291,1.47643 z"
         id="path3158"
         style="fill:#fa0000;fill-opacity:1" />
      <path
         d="m 117.41333,660.26 c -8.86081,-9.3952 -6.02195,-29.22705 6.57142,-45.90685 7.70673,-10.20748 19.48894,-15.50589 27.26027,-12.25882 2.04991,0.8565 3.7271,2.23362 3.7271,3.06026 0,0.82665 -1.99158,2.87323 -4.42574,4.54798 -7.4377,5.11727 -13.55578,17.14189 -13.56868,26.6682 -0.005,3.67144 -0.42547,4.39499 -3.88443,6.68402 -3.71097,2.4558 -8.12115,9.44232 -8.12115,12.86537 0,2.63149 -2.14478,7.8335 -3.22975,7.8335 -0.56875,0 -2.51682,-1.57214 -4.32904,-3.49366 z"
         id="path3156"
         style="fill:#fa0000;fill-opacity:1" />
      <path
         d="m 82.763259,657.07226 c -4.97366,-1.30799 -9.00171,-16.33132 -6.89854,-25.7293 2.55093,-11.39875 16.3167,-35.5893 20.25229,-35.5893 1.45926,0 1.85511,-0.75931 1.85511,-3.55845 0,-9.74236 6.568431,-36.75495 11.094851,-45.62748 6.2379,-12.22728 16.7948,-17.07772 22.96616,-10.55196 5.29405,5.59807 7.05206,11.29642 8.52446,27.63092 0.77375,8.58383 1.84311,19.61242 2.37636,24.50798 0.53325,4.89555 0.73343,9.28305 0.44484,9.75 -0.28859,0.46694 -2.19165,0.84899 -4.22903,0.84899 -5.20819,0 -13.18652,5.64361 -18.80981,13.30545 -2.50053,3.407 -4.91194,6.32979 -5.3587,6.49508 -0.44676,0.16529 -2.31908,-1.8005 -4.16071,-4.36843 -5.3404,-7.44651 -4.66566,-0.62574 0.76261,7.70907 1.62791,2.49957 1.6269,2.83765 -0.0189,6.30586 -1.07546,2.26638 -1.99716,7.52044 -2.41558,13.76978 l -0.67657,10.10508 -6.5,2.80101 c -6.197341,2.67058 -14.008111,3.5634 -19.208861,2.1957 z"
         id="path3152"
         style="fill:#fa0000;fill-opacity:1" />
      <path
         d="m 511.88843,1189.9194 c -6.74802,-2.2345 -10.52626,-4.5967 -23.5,-14.6926 -13.03313,-10.1421 -32.01786,-28.8576 -42.93708,-42.3282 -15.13336,-18.6695 -33.97206,-53.3535 -35.92397,-66.1399 -1.95083,-12.7792 1.45569,-24.8896 8.57682,-30.491 2.50541,-1.9708 2.81227,-2.0073 3.93737,-0.4687 0.6711,0.9178 2.44863,5.1092 3.95005,9.3142 5.60811,15.7065 6.60052,18.2751 6.93259,17.9431 0.64149,-0.6415 -4.38485,-20.2951 -8.93212,-34.9256 -3.41243,-10.9793 -22.71656,-63.91309 -32.13668,-88.12195 -0.55143,-1.41712 -0.13752,-1.75015 2.17603,-1.75079 3.0477,-8.4e-4 13.64346,-4.64288 18.51413,-8.1111 1.61852,-1.15249 4.28369,-4.47142 5.92259,-7.37539 l 2.97982,-5.27994 7.21565,-1.07096 c 3.96861,-0.58903 7.48321,-0.7539 7.81022,-0.36639 0.32701,0.38751 2.51513,6.32957 4.86249,13.20457 7.71318,22.59056 20.83637,53.55782 33.25556,78.47435 8.69846,17.4516 21.19094,39.8424 21.57926,38.6774 0.18378,-0.5513 -0.63149,-2.8952 -1.8117,-5.2086 -1.18021,-2.3134 -2.75342,-6.225 -3.49603,-8.6925 l -1.35019,-4.4864 4.1876,0.6658 c 10.17404,1.6173 27.50627,7.9746 86.68759,31.796 15.675,6.3094 40.875,15.8593 56,21.2219 40.02426,14.1907 53.53978,19.8135 65,27.0417 5.77583,3.6429 6.92923,5.2193 6.9682,9.5237 0.0377,4.1669 -5.21886,12.5714 -10.20236,16.312 -1.79621,1.3483 -8.4356,5.0891 -14.75419,8.313 -8.3521,4.2614 -13.1295,7.4626 -17.5,11.726 -7.8438,7.6517 -27.77831,23.5957 -33.51165,26.8033 -9.68366,5.4176 -18.72682,6.1714 -47.32097,3.9443 -20.75957,-1.6168 -27.31306,-1.2011 -38.20723,2.4239 -9.66671,3.2165 -28.26263,4.3464 -34.9718,2.1248 z"
         id="path3201"
         style="fill:#ffc141;fill-opacity:1" />
      <path
         d="m 200.88843,1162.134 c -3.85,-1.0904 -14.425,-5.5207 -23.5,-9.845 -19.6422,-9.3598 -30.35887,-12.9084 -42.5,-14.073 -17.41139,-1.6701 -29.37946,-6.6968 -39.156625,-16.4462 -5.72273,-5.7065 -6.37258,-6.83 -9.22106,-15.9428 -3.15116,-10.081 -4.57692,-12.4761 -12.54162,-21.0683 -4.99562,-5.3892 -8.5807,-11.7975 -8.5807,-15.3381 0,-2.8176 6.89175,-10.3224 12.4945,-13.6058 9.22815,-5.408 33.631135,-11.8094 57.369325,-15.049 17.53914,-2.3936 29.99667,-3.3647 64.63618,-5.0387 18.15,-0.8771 38.4,-1.9406 45,-2.3633 6.6,-0.4227 12.28198,-0.5068 12.62661,-0.1868 0.34464,0.3199 2.53906,4.9873 4.8765,10.3719 2.33743,5.3846 4.42682,9.6132 4.64308,9.397 0.59144,-0.5915 -2.40442,-13.0211 -5.5887,-23.1872 -4.15176,-13.2548 -12.01686,-32.48968 -22.2138,-54.3261 -4.96359,-10.62939 -8.82106,-19.52981 -8.57214,-19.77873 0.24891,-0.24892 5.12714,1.22819 10.84051,3.28245 5.71337,2.05426 19.1134,6.00469 29.77786,8.77873 l 19.38992,5.0437 7.12899,16 c 9.23758,20.73245 18.03161,37.30285 27.06595,50.99995 8.24771,12.5045 15.16298,20.8238 13.58063,16.338 -0.51646,-1.4641 -2.3152,-5.1005 -3.99721,-8.0809 -3.83014,-6.7866 -3.88119,-7.9771 -0.3082,-7.1874 12.35187,2.73 21.75703,7.3273 29.49425,14.4171 11.10828,10.1787 14.74224,20.6681 11.28286,32.5679 -4.82955,16.6131 -19.77253,28.8719 -57.9098,47.5076 -24.85422,12.145 -46.94931,20.0859 -67.61731,24.3015 -24.89331,5.0774 -37.1922,5.7143 -48.5,2.5115 z"
         id="path3199"
         style="fill:#ffc141;fill-opacity:1" />
      <path
         d="m 232.88843,528.85457 c -15.03499,-4.77506 -38.44927,-24.70596 -46.95297,-39.96771 -7.13055,-12.79732 -10.33635,-28.00921 -8.03523,-38.12811 0.97824,-4.30172 10.7199,-32.57446 14.4347,-41.89311 3.31368,-8.31243 13.96104,-30.2091 16.34282,-33.60957 1.32808,-1.89609 1.47831,-1.90878 2.93462,-0.24786 0.84418,0.9628 2.29909,3.25826 3.23312,5.10103 1.66116,3.27736 1.63864,3.46291 -1.03168,8.5 -15.58108,29.39091 -23.13833,49.52477 -25.20461,67.14951 -0.64961,5.54099 -0.4712,8.05217 0.85596,12.0481 5.51545,16.60637 16.55606,29.01644 36.1902,40.67917 6.5692,3.90212 7.75866,4.26595 13.7131,4.19461 9.5711,-0.11469 16.89122,-4.25644 54.51997,-30.84767 23.41164,-16.54437 64.08547,-38.57421 71.21981,-38.57421 1.39845,0 2.75318,1.01481 3.67114,2.75 1.33685,2.527 1.51583,2.59368 2.20712,0.8223 2.26304,-5.79891 -9.31576,-14.64591 -18.96226,-14.48849 l -5.13581,0.0838 5.60539,1.20642 c 5.68034,1.22257 10.89461,3.90385 10.89461,5.60223 0,2.66739 -18.64215,8.44026 -32.5,10.0642 -15.60868,1.82912 -29.15362,0.12706 -41.93148,-5.26911 -29.90586,-12.62943 -54.1632,-37.17831 -76.35369,-77.27135 -5.30127,-9.57815 -17.19594,-35.08062 -21.22178,-45.5 -3.24407,-8.39605 -25.64114,-38.63236 -27.36723,-36.94608 -0.31185,0.30466 1.2175,2.71342 3.39856,5.3528 4.04434,4.89421 11.64434,17.0975 16.25045,26.09328 6.73324,13.15009 11.51391,24.51253 10.56121,25.10133 -2.44077,1.50848 -21.86206,-21.24445 -30.88667,-36.18516 -7.1565,-11.84794 -13.22211,-25.97987 -13.73595,-32.0026 -0.5342,-6.26149 1.48384,-10.63132 5.72001,-12.386 4.09926,-1.69797 6.55901,-0.87458 13.30838,4.45492 12.17098,9.61056 31.42684,38.12782 45.92782,68.01751 l 6.79209,14 -0.61854,-5.75 -0.61854,-5.75 4.55589,0 c 4.94197,0 7.71947,-0.73548 7.71947,-2.04412 0,-0.45658 -1.4625,-0.59706 -3.25,-0.31218 -1.7875,0.28488 -4.49788,0.0388 -6.02306,-0.54689 -2.38176,-0.91459 -2.68113,-1.45515 -2.12155,-3.83083 0.84832,-3.60144 4.22336,-9.17996 7.26975,-12.01598 1.72828,-1.60893 3.64062,-2.25 6.71187,-2.25 2.36222,0 4.49778,0.3375 4.74568,0.75 0.2479,0.4125 -0.18333,3.675 -0.9583,7.25 -1.77525,8.18941 -1.05203,14.01477 2.10857,16.98399 1.87014,1.75691 4.19523,2.43664 10.51347,3.07359 24.53918,2.4738 33.09027,11.73818 37.52084,40.65065 0.90956,5.93547 2.30003,13.07802 3.08993,15.87232 3.40559,12.04732 12.01251,21.30404 23.18656,24.93707 6.91172,2.24721 18.10682,2.25497 32.94966,0.0228 19.74113,-2.96876 34.51506,-1.3869 39.00161,4.17595 2.89375,3.58793 2.83358,5.72979 -0.33982,12.09798 -3.66517,7.35504 -8.78792,11.0703 -26.29553,19.07074 -8.4328,3.85354 -16.06976,7.64153 -16.97102,8.41776 -1.71987,1.48127 -59.73226,38.51317 -78.63866,50.19856 -13.26391,8.19797 -22.12987,12.51999 -25.5,12.43088 -1.375,-0.0364 -4.3,-0.63779 -6.5,-1.3365 z"
         id="path3195"
         style="fill:#ffc141;fill-opacity:1" />
      <path
         d="m 233.61935,506.05785 c -9.49732,-3.00361 -16.83443,-8.99785 -28.23046,-23.06358 -11.27022,-13.91047 -13.93298,-22.32096 -11.32068,-35.75704 2.57036,-13.22037 22.27272,-60.6458 25.55114,-61.504 0.55,-0.14398 2.125,1.41027 3.5,3.45388 1.375,2.04362 5.68415,8.01283 9.5759,13.26492 3.89174,5.25209 6.87088,10.21422 6.6203,11.02695 -0.25057,0.81273 -1.47625,3.72769 -2.72373,6.47769 -5.29079,11.66328 -6.52792,15.07036 -7.61565,20.97364 -1.45051,7.87222 -0.65725,11.52636 2.50219,11.52636 1.2765,0 6.10963,-1.31277 10.74029,-2.91727 8.96672,-3.10691 21.70123,-6.48018 28.59011,-7.57329 3.41401,-0.54172 4.98724,-0.20513 8.5,1.81858 6.98905,4.02642 18.16214,6.59856 34.06059,7.84103 11.08297,0.86614 14.75,1.48564 14.75,2.49183 0,0.73652 -0.36301,1.33912 -0.80669,1.33912 -1.79374,0 -27.59607,16.20668 -41.08285,25.80451 -7.91425,5.63215 -20.3557,13.8302 -27.64767,18.21788 -14.28748,8.59698 -16.62959,9.21423 -24.96279,6.57879 z"
         id="path3313"
         style="fill:#f89616;fill-opacity:1" />
      <path
         d="m 230.46129,446.4856 c -1.25348,-4.99425 6.37998,-25.79828 10.81717,-29.48082 1.17668,-0.97656 3.7385,0.72522 14.035,9.32323 6.92757,5.78481 12.83884,10.91145 13.13616,11.39253 0.29733,0.48107 -1.14297,1.17061 -3.20066,1.5323 -2.05769,0.3617 -9.14125,2.40482 -15.74125,4.54028 -17.22301,5.57258 -18.28585,5.72283 -19.04642,2.69248 z"
         id="path3338"
         style="fill:#fac2be" />
    </g>
  </g>
</svg>
