<?xml version="1.0" encoding="UTF-8" standalone="no"?>
<!-- Created with sK1/UniConvertor (http://sk1project.org/) -->

<svg
   xmlns:dc="http://purl.org/dc/elements/1.1/"
   xmlns:cc="http://creativecommons.org/ns#"
   xmlns:rdf="http://www.w3.org/1999/02/22-rdf-syntax-ns#"
   xmlns:svg="http://www.w3.org/2000/svg"
   xmlns="http://www.w3.org/2000/svg"
   xmlns:sodipodi="http://sodipodi.sourceforge.net/DTD/sodipodi-0.dtd"
   xmlns:inkscape="http://www.inkscape.org/namespaces/inkscape"
   width="1096.1464"
   height="1196.908"
   viewBox="0 0 876.91712 957.52632"
   id="svg3348"
   version="1.1"
   inkscape:version="0.48.2 r9819"
   sodipodi:docname="Mickey_004.cdr"
   style="fill-rule:evenodd">
  <metadata
     id="metadata3410">
    <rdf:RDF>
      <cc:Work
         rdf:about="">
        <dc:format>image/svg+xml</dc:format>
        <dc:type
           rdf:resource="http://purl.org/dc/dcmitype/StillImage" />
        <dc:title></dc:title>
      </cc:Work>
    </rdf:RDF>
  </metadata>
  <defs
     id="defs3408" />
  <sodipodi:namedview
     pagecolor="#ffffff"
     bordercolor="#666666"
     borderopacity="1"
     objecttolerance="10"
     gridtolerance="10"
     guidetolerance="10"
     inkscape:pageopacity="0"
     inkscape:pageshadow="2"
     inkscape:window-width="1366"
     inkscape:window-height="709"
     id="namedview3406"
     showgrid="false"
     fit-margin-top="0"
     fit-margin-left="0"
     fit-margin-right="0"
     fit-margin-bottom="0"
     inkscape:zoom="0.43445279"
     inkscape:cx="548.07318"
     inkscape:cy="598.45398"
     inkscape:window-x="-8"
     inkscape:window-y="-8"
     inkscape:window-maximized="1"
     inkscape:current-layer="layer14" />
  <g
     inkscape:groupmode="layer"
     id="layer11"
     inkscape:label="Layer1"
     style="display:inline">
    <path
       id="path4564"
       style="fill:#000000;fill-rule:evenodd;stroke:none"
       d="m 540.52798,652.98649 17.17213,2.01929 c 8.41741,0.33581 14.81256,0.33581 18.51683,-0.33581 -13.46639,21.20625 -24.57916,39.38876 -32.6578,55.21321 -11.44857,3.02819 -20.8734,8.07864 -27.94315,15.48715 -0.33877,-1.682 -1.68348,-4.04452 -4.04303,-6.06232 -2.3551,-2.35361 -4.3729,-3.36548 -6.39665,-3.6998 18.51832,-34.00547 29.9669,-54.88334 35.35167,-62.62172 z M 810.87786,142.58498 C 804.8185,127.09784 795.39219,113.63146 782.93322,103.19624 770.47574,92.756556 755.99898,86.025596 739.5059,82.994426 729.06622,71.545858 715.59835,62.458318 699.4381,56.060184 681.93017,49.662054 665.09683,47.306964 647.92768,49.662054 643.21303,34.512193 633.11213,22.056203 616.95188,11.956784 600.12151,0.84401292 582.95087,-2.5214651 566.11603,1.8558929 550.29307,6.9063339 540.52798,15.322274 537.16102,27.443943 c -1.34472,5.04896 -1.34472,9.76361 0,14.476771 1.68348,4.37586 4.37586,8.07864 8.41741,10.4367 l 37.03366,23.903092 c 14.14096,10.10089 25.25076,20.20031 32.65779,30.302704 3.03265,14.47528 7.40852,25.24927 13.80368,33.32939 -6.73394,12.7918 -6.73543,23.22999 0.33877,31.31011 l -25.59102,43.09599 -11.78439,-15.48865 c 3.70723,-6.39664 5.72652,-14.14096 6.39962,-23.22999 0.33432,-8.41741 -0.6731,-16.83334 -3.03117,-24.91495 -2.69238,-8.08013 -6.73393,-14.81258 -12.1187,-19.86302 -5.72354,-5.38773 -12.45896,-8.08012 -20.53612,-8.41741 -18.51831,-0.33729 -29.29231,7.40703 -32.65779,23.56727 -2.69238,12.12018 -0.33878,27.60882 5.72354,46.12566 -5.05044,2.01928 -8.41592,4.03857 -10.10089,5.38625 -8.41593,-15.48715 -20.20032,-28.28192 -35.35019,-38.38133 -14.47974,-9.7651 -30.63998,-16.49606 -49.15682,-19.86303 -18.18102,-3.70426 -36.02327,-4.04006 -54.87738,-1.34768 -19.19141,3.02968 -37.03366,9.092 -53.5312,18.51832 9.76361,-22.22258 11.1098,-43.09449 3.70425,-62.623194 -6.39812,-17.84225 -18.51682,-31.308628 -36.02624,-41.072242 -17.84225,-9.76658 -36.35908,-12.794771 -56.22358,-9.42929 -21.8838,3.70426 -40.40212,14.47826 -55.88778,32.996572 -16.49755,19.18844 -26.26115,40.063344 -29.29231,61.948614 -3.0282,20.53612 0,38.71714 9.092,55.2132 8.75172,16.49606 21.5465,27.60734 38.71713,34.00547 18.18103,6.39515 38.38134,5.72206 59.92785,-2.35806 -4.37587,10.09941 -7.74284,20.87341 -9.76213,32.65778 -2.69535,13.46639 -3.03116,25.92238 -2.02077,37.37096 -9.42631,-13.46787 -21.20921,-23.90457 -35.35166,-31.6474 -13.46638,-7.07123 -27.60734,-11.11129 -42.08411,-11.11129 -14.81406,-0.33581 -28.28043,3.03116 -39.72604,10.43819 -12.79492,7.74134 -21.88484,19.18844 -28.28252,34.33978 l -3.36741,0.67459 c -7.068552,-3.03116 -13.467132,-7.74432 -18.517422,-14.14245 -3.70129,-5.05045 -7.40525,-11.7829 -11.10862,-20.53612 l -9.09096,-22.22109 c -4.03961,-8.08012 -8.41682,-14.81257 -12.79298,-19.18992 -3.36742,-3.36697 -7.40748,-5.72206 -12.45778,-6.73394 l -15.15105,1.0104 c -12.45555,4.37735 -20.8723704,16.49753 -25.9226704,36.36056 -4.71283,28.28192 4.71375,50.50152 28.9547204,66.66177 2.01914,9.42781 2.01914,22.89418 -0.33744,40.40063 -1.68304,11.11128 -5.72354,30.97431 -11.78275,59.92933 -7.74461,34.33979 -9.4283904,66.66029 -6.06202,97.63608 3.36682,29.62663 10.77474,46.79727 21.54873,51.17165 2.35569,8.41593 6.39664,14.81555 11.78364,19.19439 5.38596,4.37141 11.10906,6.05637 17.84329,5.38477 6.73289,-0.67459 13.13013,-3.70129 19.19067,-9.76361 6.73438,-6.39962 12.45644,-15.48567 16.83409,-26.93425 4.039612,-0.67161 8.416822,-4.71465 13.467122,-12.11871 3.02982,-4.04154 8.41682,-13.13205 15.82192,-26.59844 16.83349,-30.97281 32.32213,-52.8581 45.78851,-66.32597 12.12168,6.39813 26.93425,6.39813 45.11379,0 16.83483,-5.72354 28.28044,-13.80367 34.00547,-23.90308 33.66669,3.36697 73.05991,9.76361 118.8453,18.85412 55.55048,10.774 89.55743,20.8749 102.68652,29.29083 18.8571,14.13947 27.27154,35.35018 25.58806,63.9679 -1.34768,22.55689 -8.41593,45.7854 -21.21219,70.03023 -1.01039,1.68348 0.33878,5.05045 3.36548,9.42186 2.35807,3.70723 4.71613,7.07271 7.40851,9.43077 -34.34127,33.33238 -73.05841,61.27256 -115.81561,84.16822 -41.74682,21.8838 -77.43577,34.0025 -107.0624,36.02031 -33.66818,2.36252 -61.27552,-1.34323 -83.15932,-11.78142 -24.57618,-11.78438 -39.05444,-30.63553 -43.4303,-56.5579 0.33581,22.55392 10.77399,40.73792 30.97431,54.20281 22.8927,15.48567 54.87739,21.8838 95.9526,19.52573 30.63553,-2.69238 63.96791,-13.12612 99.99118,-31.31011 24.91347,-12.79477 60.60093,-34.67857 106.7251,-65.98571 l -35.35166,57.23546 c -10.43522,2.01929 -20.19883,6.05638 -28.95205,12.45302 -9.09051,6.06233 -14.14096,12.12019 -15.48715,18.18251 -5.38774,3.70129 -15.82295,8.08162 -30.97282,13.46638 l -45.78985,15.15135 c -41.74533,15.14986 -70.36306,32.99357 -86.18751,53.86701 -17.17063,22.89416 -19.52722,45.11672 -6.39664,67.33632 10.1009,18.18105 28.28044,33.33095 53.8685,46.45995 18.85263,9.4264 40.40062,15.1499 64.3037,16.4946 23.56877,1.6835 46.79876,-0.6716 69.69144,-7.0682 23.56728,-6.734 44.10489,-16.8334 61.27404,-30.9728 18.85709,-14.8156 31.98322,-32.66083 39.73051,-53.53123 34.33831,9.7636 68.67958,14.81408 102.68653,16.16024 31.98173,0.67312 61.94565,-2.02376 89.88731,-8.75472 26.93425,-6.39512 49.83289,-16.15872 68.34823,-28.61768 18.85413,-12.79184 31.64592,-27.60592 38.37984,-44.77505 10.774,-27.27303 5.38928,-51.84771 -16.16023,-73.06436 -8.41593,-7.73838 -18.18103,-14.47083 -29.62664,-20.19883 -9.76509,-5.05045 -18.8556,-8.07864 -27.27301,-9.76212 -27.94167,-5.04897 -63.96791,4.37735 -108.40712,28.95502 -2.35509,-3.03116 -6.39664,-6.06232 -11.44709,-8.41593 -4.71613,-2.69684 -9.42632,-4.37884 -13.80218,-5.04897 10.10089,-24.58212 23.9016,-48.81804 40.73643,-72.7241 9.42631,-1.3447 20.20031,-6.05934 32.65779,-13.46786 12.45748,-7.74283 21.8838,-15.48715 27.94315,-23.90457 -8.75323,-19.52276 -14.81555,-42.75572 -18.17954,-69.35416 8.08012,-38.71863 0.6731,-72.38384 -22.55541,-100.32847 -19.86599,-24.24038 -48.81804,-41.7483 -86.19196,-52.85811 3.36548,-12.79476 17.50793,-40.06481 42.75869,-81.81312 25.25076,-41.07372 46.12417,-72.04803 62.62023,-92.58563 5.38774,-0.3373 10.77251,-2.01929 16.83334,-4.71168 5.05045,-2.69387 9.43078,-5.38774 12.45748,-8.41741 22.22258,2.69089 45.45107,10.77399 69.69443,23.56728 8.41593,4.04006 22.89124,13.13057 43.76756,26.59695 9.09056,5.72355 17.84224,8.75322 26.59552,8.08012 9.08752,-0.3358 15.14984,-4.37586 18.51832,-12.45599 1.68344,-4.37884 2.69232,-9.76361 2.69232,-16.16174 0.33584,-9.08902 -1.01032,-17.84373 -3.70424,-25.92237 -8.7532,-24.24186 -29.62664,-41.7483 -62.2844,-52.85959 z"
       inkscape:connector-curvature="0" />
  </g>
  <g
     inkscape:groupmode="layer"
     id="layer12"
     inkscape:label="Layer2"
     style="display:inline">
    <path
       style="fill:#ffffff;fill-rule:evenodd;stroke:none"
       d="M 803.96576,141.60644 C 797.23331,124.43729 785.11609,110.96943 767.94397,100.53272 753.12843,91.77951 736.97115,86.057446 718.78716,84.035186 l 14.47676,-2.019289 c -24.9105,-20.201799 -56.2221,-29.62663 -94.26763,-28.617729 l 4.71464,-2.356579 C 643.03635,47.001527 640.34397,42.288367 636.30391,36.902113 631.59075,30.842761 625.8672,25.455021 619.47056,20.741862 602.9745,8.9589646 586.14115,4.9174166 568.63322,8.9589646 553.81768,12.997542 545.40175,20.068766 543.04369,29.493598 c -1.00891,3.704257 -0.67013,7.408515 0.67309,10.773995 1.01039,3.029676 2.69387,5.387741 5.05045,6.396642 28.61922,16.833346 50.16572,33.666693 64.30817,50.164235 0,-5.38477 0.66864,-9.762123 2.0178,-13.129089 5.72355,25.249279 11.78439,42.421399 17.50942,51.511909 8.75173,-9.76509 19.86005,-15.14986 33.66669,-16.16173 12.45748,-0.6731 24.57618,2.02077 35.68747,8.41741 11.44561,6.73245 19.18844,15.15135 22.89121,25.58806 4.04155,11.4456 2.02226,23.22998 -5.72206,35.01288 14.47825,1.68348 29.62812,5.38774 45.78688,11.78438 15.14987,6.05936 29.62961,13.46638 43.09452,22.55838 l 17.50792,11.44561 c 7.40848,4.71316 13.46784,7.74283 18.5168,9.42631 14.14096,4.71465 23.23296,0.6731 27.26856,-13.13057 -6.39512,7.74432 -14.8096,10.774 -25.58504,8.41742 -10.4352,-3.36697 -22.2196,-10.4367 -35.01584,-21.54651 l -15.1499,-13.46787 c -5.72058,-5.05045 -10.77102,-9.09051 -14.81109,-11.78289 8.41593,1.682 18.85412,7.40703 31.64595,17.84224 14.47672,11.44858 25.24928,18.51833 31.98168,21.54949 2.3596,1.00889 5.38928,1.68199 8.75624,1.34619 4.37584,0 8.08008,-1.34619 10.77544,-3.36697 8.41592,-5.72354 9.42632,-16.49606 3.02824,-32.99508 -7.06832,-14.13948 -17.17064,-25.58657 -30.97432,-35.01289 -13.80368,-9.4278 -29.62816,-15.48864 -47.80472,-17.84373 3.02671,-1.3462 8.41445,-2.02078 15.81851,-1.68498 z"
       id="path3358-9"
       inkscape:connector-curvature="0" />
    <path
       style="fill:#ffffff;fill-rule:evenodd;stroke:none"
       d="m 667.27821,123.76272 c -8.41742,0.67457 -16.16025,3.36696 -22.89418,8.0816 -6.39813,4.71316 -10.77548,10.1009 -13.13057,16.49755 -2.01781,6.39515 -1.68349,12.4545 1.68199,17.50495 5.72503,-8.41593 10.43819,-13.8007 13.80813,-16.16025 5.71909,-3.36548 11.78141,-4.71167 18.51534,-4.37586 6.06084,0.3358 11.7829,2.35657 17.16767,5.72354 12.12019,8.07864 17.84373,19.86302 16.83483,35.68747 0.002,1.34619 -3.03116,5.72354 -9.08902,13.13057 9.7636,-2.69387 17.17064,-7.07122 22.89269,-13.13057 5.04897,-5.38775 8.08013,-11.7829 8.41593,-19.19141 0.67607,-7.06974 -1.3447,-13.80219 -5.38625,-20.53463 -4.37736,-6.73543 -11.10832,-12.45748 -19.52573,-16.83484 -9.76509,-5.05045 -19.52722,-7.06974 -29.29083,-6.39812 z"
       id="path3360-5"
       inkscape:connector-curvature="0" />
    <path
       style="fill:#ffffff;fill-rule:evenodd;stroke:none"
       d="m 450.45805,220.7257 c -0.33432,-3.02819 1.01336,-4.71167 4.37884,-5.38625 3.36697,-0.33729 6.73394,0.33581 11.44561,2.35806 11.44709,5.04897 18.1825,12.79329 20.53909,23.22851 7.40554,-1.01039 8.41741,-6.73245 3.02819,-17.16916 -5.38478,-9.42632 -13.80367,-19.52721 -25.92534,-30.30121 -10.43523,-8.75471 -19.86154,-15.14986 -28.95205,-19.18992 -8.41742,-4.04007 -14.14097,-4.71465 -17.17064,-2.35658 -3.03116,2.01929 -2.3551,7.06974 2.35806,15.14986 5.72206,8.75322 15.82147,20.20031 30.29824,33.66669 z"
       id="path3366-3"
       inkscape:connector-curvature="0" />
    <path
       style="fill:#ffffff;fill-rule:evenodd;stroke:none"
       d="m 547.42253,366.84254 -1.68348,-1.34619 -1.68349,5.38625 3.36697,-4.04006 z"
       id="path3368-1"
       inkscape:connector-curvature="0" />
    <path
       style="fill:#ffffff;fill-rule:evenodd;stroke:none"
       d="m 512.74396,210.96358 4.37884,-6.06233 c -6.73542,-12.12018 -15.15135,-21.88379 -25.58954,-29.62514 l -11.44412,-6.39664 -6.06381,-0.33878 c -1.34322,1.68497 0.67459,6.39813 5.72503,13.80516 l 14.47677,18.18103 c 1.01187,-1.01188 2.69387,-1.34768 5.04896,-1.01188 4.37884,1.01188 8.7562,4.71465 13.46787,11.44858 z"
       id="path3370-2"
       inkscape:connector-curvature="0" />
    <path
       style="fill:#ffffff;fill-rule:evenodd;stroke:none"
       d="m 563.91858,373.23918 c -4.71316,-0.67161 -8.75173,-0.67161 -12.1187,0 7.40554,0.33729 15.48567,2.35806 24.24038,5.38774 -2.69536,-2.69387 -7.07123,-4.37736 -12.12168,-5.38774 z"
       id="path3372-3"
       inkscape:connector-curvature="0" />
    <path
       style="fill:#ffffff;fill-rule:evenodd;stroke:none"
       d="m 487.83048,633.48816 -2.69238,2.35806 -7.0727,12.12167 2.35806,-1.68348 7.40702,-12.79625 z"
       id="path3378-3"
       inkscape:connector-curvature="0" />
    <path
       style="fill:#ffffff;fill-rule:evenodd;stroke:none"
       d="m 184.48702,323.74953 c 20.87192,16.49606 29.96243,36.36056 26.93276,59.92784 -2.35659,16.49606 -9.42781,32.32199 -21.54651,47.80765 11.1098,-3.70425 19.86451,-10.77399 25.58657,-22.22108 5.38625,-10.09941 7.74432,-21.5465 7.06974,-34.34128 -0.67162,-13.13057 -4.03858,-24.23889 -10.43819,-33.3294 -7.06826,-10.43818 -16.15728,-16.16025 -27.60437,-17.84373 z"
       id="path3388-4"
       inkscape:connector-curvature="0" />
    <path
       style="fill:#ffffff;fill-rule:evenodd;stroke:none"
       d="m 211.75856,422.73181 c 3.02818,1.3447 8.41592,2.69238 17.16766,3.70276 l 21.54947,0.6731 -38.71713,-4.37586 z"
       id="path3390-1"
       inkscape:connector-curvature="0" />
    <path
       style="fill:#ffffff;fill-rule:evenodd;stroke:none"
       d="m 668.9617,461.11166 c -4.04155,-10.1009 -8.75323,-17.50793 -13.80367,-22.8927 -4.37736,-5.04896 -8.08013,-7.07123 -11.11278,-6.06084 -3.02818,0.67309 -4.37438,4.04006 -4.0356,9.76213 0.66863,6.73393 3.36399,15.48864 8.75174,25.58805 5.05044,10.4367 9.7636,17.84373 14.13947,22.22257 4.04303,4.03709 7.06825,5.72058 9.42632,4.03709 2.35806,-1.34767 3.36845,-5.05045 2.69238,-10.76954 -0.33432,-6.06232 -2.35658,-13.46935 -6.05786,-21.88676 z"
       id="path3396-1"
       inkscape:connector-curvature="0" />
    <path
       style="fill:#ffffff;fill-rule:evenodd;stroke:none"
       d="m 613.74404,460.77437 c -4.0371,-8.07864 -9.76064,-14.47677 -16.83186,-18.85412 -6.39516,-4.37588 -12.45451,-5.72207 -18.17805,-4.37588 -6.06233,1.3462 -9.42632,5.38775 -10.77548,12.45749 -1.34917,7.74283 0.3358,18.51683 5.72503,31.6474 4.71018,12.1187 10.77399,20.20032 18.17656,24.57767 6.39962,4.37586 12.45897,4.37586 18.18251,1.34322 5.72355,-3.364 9.09052,-8.75174 10.10091,-16.83186 1.34619,-9.08903 -0.6731,-18.85263 -6.39962,-29.96392 z"
       id="path3400-3"
       inkscape:connector-curvature="0" />
    <path
       style="fill:#ffffff;fill-rule:evenodd;stroke:none"
       d="M 75.067738,273.58381 59.242698,238.90524 C 55.539178,231.1639 50.489177,225.43886 43.754948,222.0719 34.66503,217.02293 26.249099,219.71532 18.169419,229.48041 7.3946804,242.94827 3.6907204,258.43246 7.0579844,275.6031 11.098046,295.4676 23.555377,311.62934 45.438876,323.74953 L 34.66503,321.05417 c 3.030715,11.4471 2.021368,29.6296 -2.692831,55.21468 l -6.734231,32.65928 c -2.355241,13.13058 -4.03917,24.24187 -5.049855,32.6578 l -2.018694,18.51683 c -1.011576,10.43522 -1.348272,19.86302 -1.684374,28.61475 0,26.26264 4.376165,49.15534 13.803225,67.67068 -3.367264,-21.20624 -2.01914,-44.77204 4.715239,-69.68848 l 15.822369,-50.50153 c 0.67369,4.04007 0.33654,9.76361 -1.346493,17.17064 l -6.059203,24.24038 c -6.397682,25.24927 -8.081462,49.49263 -6.398128,72.38532 1.346936,10.77251 3.703961,19.18992 8.081166,25.92386 3.701136,6.05935 8.416818,9.42632 14.139478,10.1009 5.72339,1.0089 11.44649,-1.01336 17.17108,-5.72504 6.39575,-4.71167 11.78275,-12.12167 16.15892,-22.22257 -10.77207,-0.3358 -18.51654,-5.04896 -23.22985,-14.47231 -4.03828,-8.41741 -5.38699,-18.85561 -3.36741,-31.31308 2.02152,-12.45599 6.06203,-23.90309 12.12123,-34.33979 6.73334,-10.77399 14.47603,-17.84373 23.230282,-21.2107 -11.783192,11.1098 -19.863312,23.56579 -24.913172,37.36649 -4.04066,11.78587 -5.72459,23.23445 -4.04066,33.66967 1.0098,9.7636 4.37721,16.83334 9.76406,21.5465 5.38521,4.38033 11.11054,5.05045 17.50688,1.34917 3.703522,-2.35807 8.752932,-9.42929 15.487162,-21.21367 l 14.81302,-28.95205 c 5.72325,-10.77103 14.47795,-23.5658 26.59666,-38.37985 l 29.6296,-36.36057 c 24.57618,-31.31011 27.94314,-59.59352 10.09941,-84.16822 -6.73393,-9.09199 -14.47825,-15.15135 -23.56728,-18.51831 -8.75322,-3.02968 -17.84522,-3.02968 -26.93276,0 -9.42929,3.02967 -17.84611,9.42632 -25.2518,18.51831 -7.74402,10.09942 -13.80322,22.5569 -17.84462,38.04256 -1.00891,-5.05045 -0.67236,-11.44709 2.02003,-18.51682 2.35791,-7.06826 6.06142,-14.13948 11.44709,-20.87341 12.11974,-15.82445 25.25046,-23.56728 39.72872,-23.56728 C 144.758,306.2416 124.55635,300.85386 95.940098,300.51805 l 4.04052,-1.68348 c -9.76316,-3.70277 -18.17999,-12.12018 -24.91288,-25.25076 z"
       id="path3402-8"
       inkscape:connector-curvature="0" />
    <path
       style="fill:#ffffff;fill-rule:evenodd;stroke:none"
       d="m 287.17355,364.48596 -10.43819,-13.13057 c -0.33729,1.01187 0.67309,3.02967 2.69238,6.06083 l 4.37735,5.72206 -64.64248,-18.17954 1.01187,2.35806 114.80524,32.65632 -1.01038,-1.68349 -46.79579,-13.80367 z"
       id="path3404-7"
       inkscape:connector-curvature="0" />
  </g>
  <g
     inkscape:groupmode="layer"
     id="layer13"
     inkscape:label="Layer3"
     style="display:inline">
    <path
       style="fill:#ff0000;fill-rule:evenodd;stroke:none"
       d="m 551.0051,424.99157 c -15.1528,7.74432 -26.9342,17.16915 -36.36353,28.28192 -10.1009,12.12019 -15.82296,24.2374 -16.49606,37.36947 8.75174,18.85115 12.1187,38.04553 9.76064,57.56829 -2.35361,18.184 -9.42483,39.39618 -22.21812,62.96346 3.03116,6.39516 8.08161,12.79032 15.48567,18.51683 7.40851,5.72057 16.16322,10.43522 26.5984,14.13948 23.9016,8.07864 48.1435,8.07864 72.3854,-0.33581 4.04,-9.09348 9.092,-22.2196 15.1498,-39.05295 l -17.5064,2.68793 c 13.1306,-4.71167 23.906,-9.42334 32.65632,-13.8007 16.8348,-9.08903 30.9758,-19.86599 42.4199,-32.65482 -1.3447,7.06826 -8.0786,15.14838 -19.8615,24.23592 -11.1083,8.08161 -22.2211,14.14245 -32.99212,17.84671 -2.3596,10.0994 -7.0742,22.55392 -13.8067,37.36946 40.06482,-1.01187 72.38382,-14.14096 97.63762,-39.05146 -9.0935,-22.89864 -14.1425,-41.41399 -14.8141,-55.55198 -3.0311,7.40406 -5.3892,12.1187 -7.0712,13.46638 6.7325,-31.31457 8.4159,-56.56385 4.7132,-75.7508 -2.6924,-14.14394 -8.0817,-27.61032 -16.8334,-39.72902 -7.407,-10.77399 -17.5064,-20.87489 -29.9654,-29.96541 -12.79182,-4.71315 -27.60732,-5.72354 -43.76912,-3.36696 -15.4827,2.01929 -30.634,7.06974 -45.1093,14.81406 z m 86.85912,17.16915 c 0,-7.06825 2.0193,-11.10832 6.3952,-12.45599 4.3818,-1.01039 9.092,0.67161 14.4812,5.72354 3.0267,3.03116 6.0579,6.39813 8.4159,10.43671 2.6924,3.70277 5.049,8.41741 7.0683,13.80367 4.0415,10.77399 6.0608,19.19141 6.0608,26.25818 -0.3343,6.39813 -2.0193,10.10089 -5.3862,11.44857 -3.7058,1.68348 -7.7429,0 -12.459,-4.37587 -5.3833,-4.37586 -10.4337,-11.4456 -15.4827,-20.8734 -6.0623,-12.12019 -9.0935,-21.8838 -9.0935,-29.96541 z m -37.37242,-4.71316 c 8.4189,5.05045 15.4886,13.13057 20.5391,23.90606 5.725,11.44412 7.407,21.88528 5.0504,31.64591 -1.682,8.41742 -6.3966,14.81109 -13.132,18.17806 -7.0683,3.70574 -14.1395,3.36697 -21.8838,-1.00444 -8.416,-4.38033 -15.4842,-13.46787 -20.8734,-26.26413 -5.7206,-13.46638 -7.4041,-24.57766 -5.049,-33.66669 1.682,-8.41593 6.0623,-13.80367 13.1306,-16.16174 7.0682,-2.35509 14.1409,-1.3447 22.2181,3.36697 z"
       id="path3392-1"
       inkscape:connector-curvature="0" />
  </g>
  <g
     inkscape:groupmode="layer"
     id="layer14"
     inkscape:label="Layer4"
     style="display:inline">
    <path
       style="fill:#ffcc00;fill-rule:evenodd;stroke:none"
       d="m 789.82648,728.84301 c -13.8051,-12.45748 -30.2997,-21.21218 -49.8254,-25.58657 -17.1722,-3.03116 -35.3532,-1.01187 -55.2177,5.38626 -6.7354,2.35509 -15.1498,5.72206 -24.9149,9.76509 l -24.57621,10.77103 c 5.38922,10.77548 4.71464,20.53611 -1.68497,29.29082 -5.72355,8.08013 -15.48419,14.14245 -28.95205,18.8571 -13.46639,4.3714 -27.94315,6.05638 -43.09301,5.38477 -16.49755,-0.67459 -30.97431,-4.04007 -43.09747,-10.43522 7.40703,34.6741 7.07122,63.62912 -1.34322,87.19789 28.27747,8.07566 58.57867,12.79179 90.56337,14.14096 30.97283,1.00741 60.26516,-1.34917 88.20976,-7.07123 28.6148,-5.72503 52.5208,-14.47825 71.7078,-26.26263 20.2033,-12.45302 33.3353,-27.26857 39.3932,-44.4392 9.092,-25.92832 3.3669,-48.47927 -17.1692,-66.99907 z"
       id="path3376-5"
       inkscape:connector-curvature="0" />
    <path
       style="fill:#ffcc00;fill-rule:evenodd;stroke:none"
       d="m 539.67844,717.06011 c -2.69684,0.67161 -6.73542,2.3551 -11.7829,5.38626 -4.71465,2.69387 -8.08309,4.71316 -10.10089,6.73245 3.36696,10.4367 1.68199,20.53611 -5.05046,29.6296 l 2.69239,5.04896 c 16.49457,10.1009 37.03515,14.13948 61.94713,12.12168 10.43819,-1.01485 19.86451,-3.03265 28.95651,-6.0653 8.75173,-3.36399 15.48269,-7.06825 20.19882,-11.44412 7.06826,-6.39367 8.75323,-14.47528 5.05045,-23.22701 -3.70574,-9.7651 -12.45747,-16.49903 -26.26114,-20.2018 -0.6731,1.00593 -2.69388,5.38774 -5.05045,12.1187 -2.35659,6.39961 -4.37736,10.10238 -5.72356,11.11129 -10.09792,5.72354 -22.89269,8.07715 -38.04256,6.73244 -6.73244,-0.67309 -11.78437,-2.02226 -15.82444,-4.37587 -4.37587,-2.0178 -6.39961,-5.05045 -6.06084,-8.75322 l 5.05194,-14.81406 z"
       id="path3380-2"
       inkscape:connector-curvature="0" />
    <path
       style="fill:#ffcc00;fill-rule:evenodd;stroke:none"
       d="m 496.91975,732.88159 c -4.37587,4.71464 -10.43819,8.75768 -18.18251,11.44858 -7.40703,2.69387 -14.81109,4.37884 -22.55838,4.71315 -7.74135,0.33581 -14.47528,-0.67309 -19.52573,-3.03116 -5.72206,-2.3536 -8.75174,-6.05786 -9.76213,-10.76953 0,-1.34917 3.0282,-6.73394 9.09052,-16.83484 -13.80367,5.05045 -23.90457,11.10683 -30.6385,18.51832 -6.39516,6.73245 -8.41594,13.46638 -7.07123,19.86153 1.68497,6.73097 6.73542,12.12019 15.15135,15.82445 9.42781,4.37587 21.21218,6.05935 35.68746,5.72057 16.16026,-0.67161 29.9669,-3.70277 40.73644,-9.08754 9.43077,-4.38032 16.16322,-10.4367 20.53909,-17.8467 3.70277,-6.39516 5.05045,-12.78883 3.70277,-19.18696 -1.34471,-6.39961 -4.71167,-10.4367 -9.76213,-13.13354 l -7.40702,13.80367 z"
       id="path3382-7"
       inkscape:connector-curvature="0" />
    <path
       style="fill:#ffcc00;fill-rule:evenodd;stroke:none"
       d="m 517.79465,811.32923 c 0,-19.86599 -3.36697,-35.68598 -9.7651,-47.81062 -7.40703,7.7458 -18.18251,13.12909 -31.9847,16.83483 -12.45748,3.36845 -25.58657,4.37587 -39.05443,3.02968 -13.80367,-1.3462 -24.57618,-4.71168 -32.65631,-10.10091 -8.7547,-5.72057 -12.45748,-13.1276 -11.44857,-22.2196 -10.09942,5.05194 -23.56728,10.43671 -40.40063,16.49903 l -41.74682,15.14987 c -32.32199,12.79328 -56.56237,28.61772 -72.38533,47.13455 -10.10089,12.45451 -14.13947,25.92237 -12.45599,41.07224 3.02819,22.89715 21.8838,43.76759 56.2221,62.28442 13.46787,7.41148 30.63851,12.46044 50.84031,14.81554 l 63.9679,-2.3551 c 23.90457,-4.38032 44.7765,-12.79476 62.95901,-24.91346 20.53611,-13.80367 36.02476,-31.65038 46.45849,-53.8685 8.0831,-15.82593 11.78587,-34.0025 11.45007,-55.55197 z m -190.22321,-14.48122 22.55838,1.35065 c 13.46786,1.68199 27.27005,4.71464 42.41991,8.08012 39.39024,9.76658 62.62023,19.52573 69.35416,29.62663 -20.87341,-10.77399 -44.1034,-18.85412 -69.35416,-24.9105 l -64.97829,-14.1469 z"
       id="path3384-6"
       inkscape:connector-curvature="0" />
  </g>
  <g
     inkscape:groupmode="layer"
     id="layer15"
     inkscape:label="Layer5"
     style="display:inline">
    <path
       style="fill:#e9c6af;fill-rule:evenodd;stroke:none"
       d="m 602.10031,260.68062 c 3.70574,-21.54798 -0.6731,-40.06482 -13.12909,-55.21617 -8.41742,11.44858 -18.51682,16.16174 -29.96541,13.80516 -5.04896,-1.01039 -9.42482,-3.36697 -13.46637,-7.06974 -4.04007,-4.04155 -7.06974,-8.75322 -8.75174,-14.47676 -7.74581,3.70425 -14.48123,9.09051 -20.20031,16.83334 -4.04156,5.72355 -8.7562,14.47677 -14.14096,26.93425 -0.33878,-3.70426 1.34321,-10.77548 5.05044,-20.8749 -6.06084,-3.70277 -11.11128,-8.75173 -14.47528,-14.81406 -9.092,-10.7725 -15.15135,-18.17953 -17.84819,-22.89269 -5.38625,-8.08013 -6.73393,-13.46787 -4.03857,-16.16174 3.70276,-3.02967 10.77102,-1.0089 21.5465,6.73393 11.44709,8.08162 19.8645,18.18251 25.58806,30.63851 l 4.71316,-4.37736 c -11.78439,-17.84373 -27.94316,-31.98321 -47.47186,-42.08411 -17.17063,-9.09051 -33.33088,-13.80367 -48.48223,-14.13947 1.01187,2.01929 3.03116,4.37735 6.39961,8.07864 l 6.39515,7.40703 c -18.51534,-8.75471 -39.39172,-11.7829 -62.28441,-9.42632 -24.57915,2.35509 -41.74682,11.11129 -51.51192,26.26115 -9.42631,13.80218 0,35.01288 27.94464,63.9679 10.77251,10.774 22.89418,21.54651 36.36056,31.64592 12.12167,9.42929 22.89419,16.16174 31.3116,20.53909 -16.83334,1.00891 -32.3205,5.05045 -45.78837,12.45748 -12.12018,6.05787 -21.88379,14.47528 -29.62811,24.57619 -6.73394,9.09051 -11.1098,18.51831 -12.79329,28.28043 -1.34619,9.76213 -0.33729,17.84374 4.04155,24.57915 22.8927,7.06826 52.18501,14.81258 87.53519,23.23 -5.05045,-6.73394 -7.07122,-10.774 -6.73394,-12.45748 13.13058,13.12908 21.8838,21.21069 26.59695,24.57766 11.11129,7.40555 23.90458,11.1098 38.04405,10.09942 14.13948,-0.6731 28.28044,-11.7829 43.0945,-33.33238 l 13.80367,-22.2196 c 3.70426,-7.06825 6.39813,-10.43522 7.40703,-10.43522 l -2.01929,5.04896 1.68349,1.3462 6.73392,-10.43671 c 3.36697,-6.39515 5.72058,-11.78438 6.39368,-16.16025 -5.72355,5.05045 -13.8007,10.4382 -24.24038,15.15136 l -7.74134,16.49456 c -3.70426,7.74432 -8.07865,14.47825 -11.78439,20.2018 -12.12019,16.49754 -25.92534,24.57618 -41.74682,24.57618 -7.40703,0 -14.81405,-2.69238 -21.8838,-8.41593 -5.05045,-4.37587 -10.77399,-11.1098 -17.17212,-20.20031 L 419.6244,364.71484 c -6.39812,-9.092 -12.12167,-15.82593 -17.8467,-20.2018 -3.02819,2.35509 -6.05787,5.05045 -9.08754,8.75471 l -7.40703,9.76212 c -0.6731,-8.75322 4.37735,-16.83335 15.14837,-24.57767 11.44858,-8.08012 22.55838,-11.1098 33.66818,-8.75174 -10.77251,3.36697 -18.51683,6.05936 -22.89269,8.41594 8.41741,9.76361 19.18992,16.83483 32.6563,21.54799 12.45748,4.03857 26.25966,5.72206 40.7394,4.37587 14.47677,-1.01039 28.61773,-4.71316 42.41991,-11.1098 14.47677,-6.39664 26.59844,-14.81406 37.70824,-25.58806 20.8749,-20.8749 33.6667,-43.0945 37.36947,-66.66178 z M 466.08734,192.33537 c 12.45303,10.77399 21.20773,21.21218 25.91941,30.97579 4.04155,8.41593 4.37884,14.81257 1.01484,18.85412 l -19.19289,0.67161 c -10.10091,-4.37587 -21.548,-12.45599 -34.34276,-24.91347 -12.45748,-12.45897 -20.87341,-23.23148 -25.25076,-31.9847 -3.70278,-8.08012 -3.36549,-13.46786 0.67606,-16.15876 3.70129,-2.69536 10.43522,-2.02078 19.18844,1.682 10.10387,4.04006 20.87192,10.77251 31.98766,20.87341 z"
       id="path3362-1"
       inkscape:connector-curvature="0" />
  </g>
  <g
     inkscape:groupmode="layer"
     id="layer16"
     inkscape:label="Layer6"
     style="display:inline">
    <path
       style="fill:#f9866d;fill-rule:evenodd;stroke:none"
       d="m 492.25891,381.70268 c -7.06825,-0.67309 -14.14096,0.33729 -20.53611,3.03116 3.36696,6.39516 5.05045,11.4471 5.05045,14.81406 -5.38775,-9.09051 -11.4471,-16.16173 -18.51683,-21.21218 -8.7562,-6.39516 -17.84522,-8.75174 -27.60883,-6.73245 13.46786,24.57767 27.27153,38.38134 41.74682,41.41101 13.46786,3.02968 26.59844,-3.70426 39.39172,-20.19882 -3.70128,-6.39665 -10.43522,-10.10239 -19.52722,-11.11278 z"
       id="path3374-4"
       inkscape:connector-curvature="0" />
  </g>
</svg>
